<?xml version="1.0" encoding="UTF-8" standalone="no"?>
<!-- Created with Inkscape (http://www.inkscape.org/) -->

<svg
   width="124.23578mm"
   height="116.62677mm"
   viewBox="0 0 124.23578 116.62677"
   version="1.1"
   id="svg1228"
   inkscape:export-filename="celebration.svg"
   inkscape:export-xdpi="96"
   inkscape:export-ydpi="96"
   xmlns:inkscape="http://www.inkscape.org/namespaces/inkscape"
   xmlns:sodipodi="http://sodipodi.sourceforge.net/DTD/sodipodi-0.dtd"
   xmlns:xlink="http://www.w3.org/1999/xlink"
   xmlns="http://www.w3.org/2000/svg"
   xmlns:svg="http://www.w3.org/2000/svg">
  <sodipodi:namedview
     id="namedview1230"
     pagecolor="#ffffff"
     bordercolor="#000000"
     borderopacity="0.25"
     inkscape:showpageshadow="2"
     inkscape:pageopacity="0.0"
     inkscape:pagecheckerboard="0"
     inkscape:deskcolor="#d1d1d1"
     inkscape:document-units="mm"
     showgrid="false"
     inkscape:zoom="0.70730902"
     inkscape:cx="204.29543"
     inkscape:cy="559.16154"
     inkscape:window-width="1309"
     inkscape:window-height="763"
     inkscape:window-x="0"
     inkscape:window-y="25"
     inkscape:window-maximized="0"
     inkscape:current-layer="layer1" />
  <defs
     id="defs1225">
    <linearGradient
       inkscape:collect="always"
       id="linearGradient14598">
      <stop
         style="stop-color:#ffd5d5;stop-opacity:1"
         offset="0"
         id="stop14594" />
      <stop
         style="stop-color:#ff816f;stop-opacity:1"
         offset="1"
         id="stop14596" />
    </linearGradient>
    <linearGradient
       inkscape:collect="always"
       id="linearGradient10861">
      <stop
         style="stop-color:#d5f6ff;stop-opacity:1"
         offset="0"
         id="stop10857" />
      <stop
         style="stop-color:#55ddff;stop-opacity:1"
         offset="1"
         id="stop10859" />
    </linearGradient>
    <linearGradient
       inkscape:collect="always"
       id="linearGradient7399">
      <stop
         style="stop-color:#ffe680;stop-opacity:1"
         offset="0"
         id="stop7395" />
      <stop
         style="stop-color:#ffd42a;stop-opacity:1"
         offset="1"
         id="stop7397" />
    </linearGradient>
    <linearGradient
       inkscape:collect="always"
       id="linearGradient5666">
      <stop
         style="stop-color:#ff9955;stop-opacity:1"
         offset="0"
         id="stop5662" />
      <stop
         style="stop-color:#ff6600;stop-opacity:1"
         offset="1"
         id="stop5664" />
    </linearGradient>
    <radialGradient
       inkscape:collect="always"
       xlink:href="#linearGradient5666"
       id="radialGradient5668"
       cx="72.954033"
       cy="183.50624"
       fx="72.954033"
       fy="183.50624"
       r="24.396921"
       gradientTransform="matrix(0.39007664,0,0,0.63892008,95.270973,59.319269)"
       gradientUnits="userSpaceOnUse" />
    <radialGradient
       inkscape:collect="always"
       xlink:href="#linearGradient7399"
       id="radialGradient7401"
       cx="70.94915"
       cy="180.07846"
       fx="70.94915"
       fy="180.07846"
       r="17.242887"
       gradientTransform="matrix(0.45085417,-0.11342724,0.26726549,1.0054256,41.967616,-2.2263613)"
       gradientUnits="userSpaceOnUse" />
    <radialGradient
       inkscape:collect="always"
       xlink:href="#linearGradient10861"
       id="radialGradient9475"
       gradientUnits="userSpaceOnUse"
       gradientTransform="matrix(0.09257708,-0.39039196,0.6024454,0.15163519,2.9292962,174.8212)"
       cx="72.954033"
       cy="183.50624"
       fx="72.954033"
       fy="183.50624"
       r="24.396921" />
    <radialGradient
       inkscape:collect="always"
       xlink:href="#linearGradient10861"
       id="radialGradient13772"
       gradientUnits="userSpaceOnUse"
       gradientTransform="matrix(0.09257708,-0.39039196,0.6024454,0.15163519,-40.901941,143.29347)"
       cx="72.954033"
       cy="183.50624"
       fx="72.954033"
       fy="183.50624"
       r="24.396921" />
    <radialGradient
       inkscape:collect="always"
       xlink:href="#linearGradient5666"
       id="radialGradient13774"
       gradientUnits="userSpaceOnUse"
       gradientTransform="matrix(0.39007664,0,0,0.63892008,51.439736,27.791537)"
       cx="72.954033"
       cy="183.50624"
       fx="72.954033"
       fy="183.50624"
       r="24.396921" />
    <radialGradient
       inkscape:collect="always"
       xlink:href="#linearGradient7399"
       id="radialGradient13776"
       gradientUnits="userSpaceOnUse"
       gradientTransform="matrix(0.45085417,-0.11342724,0.26726549,1.0054256,-1.8636214,-33.754094)"
       cx="70.94915"
       cy="180.07846"
       fx="70.94915"
       fy="180.07846"
       r="17.242887" />
    <radialGradient
       inkscape:collect="always"
       xlink:href="#linearGradient10861"
       id="radialGradient13846"
       gradientUnits="userSpaceOnUse"
       gradientTransform="matrix(0.09257708,-0.39039196,0.6024454,0.15163519,-79.158153,106.95968)"
       cx="72.954033"
       cy="183.50624"
       fx="72.954033"
       fy="183.50624"
       r="24.396921" />
    <radialGradient
       inkscape:collect="always"
       xlink:href="#linearGradient5666"
       id="radialGradient13848"
       gradientUnits="userSpaceOnUse"
       gradientTransform="matrix(0.39007664,0,0,0.63892008,13.183524,-8.5422522)"
       cx="72.954033"
       cy="183.50624"
       fx="72.954033"
       fy="183.50624"
       r="24.396921" />
    <radialGradient
       inkscape:collect="always"
       xlink:href="#linearGradient7399"
       id="radialGradient13850"
       gradientUnits="userSpaceOnUse"
       gradientTransform="matrix(0.45085417,-0.11342724,0.26726549,1.0054256,-40.119833,-70.087883)"
       cx="70.94915"
       cy="180.07846"
       fx="70.94915"
       fy="180.07846"
       r="17.242887" />
    <radialGradient
       inkscape:collect="always"
       xlink:href="#linearGradient14598"
       id="radialGradient14600"
       cx="85.558861"
       cy="173.86443"
       fx="85.558861"
       fy="173.86443"
       r="16.436979"
       gradientTransform="matrix(1,0,0,1.0389621,0,-6.7741208)"
       gradientUnits="userSpaceOnUse" />
    <radialGradient
       inkscape:collect="always"
       xlink:href="#linearGradient14598"
       id="radialGradient17847"
       gradientUnits="userSpaceOnUse"
       gradientTransform="matrix(1,0,0,1.0389621,-44.140301,-37.82196)"
       cx="85.558861"
       cy="173.86443"
       fx="85.558861"
       fy="173.86443"
       r="16.436979" />
    <radialGradient
       inkscape:collect="always"
       xlink:href="#linearGradient14598"
       id="radialGradient17851"
       gradientUnits="userSpaceOnUse"
       gradientTransform="matrix(1,0,0,1.0389621,37.407035,-79.717839)"
       cx="85.558861"
       cy="173.86443"
       fx="85.558861"
       fy="173.86443"
       r="16.436979" />
  </defs>
  <g
     inkscape:label="Layer 1"
     inkscape:groupmode="layer"
     id="layer1"
     transform="translate(-19.013613,-78.20294)">
    <rect
       style="opacity:1;fill:#fff0cc;fill-opacity:1;stroke-width:0.199671"
       id="rect13904"
       width="124.23578"
       height="116.62678"
       x="19.013613"
       y="78.202934"
       inkscape:export-filename="celebration.svg"
       inkscape:export-xdpi="96"
       inkscape:export-ydpi="96" />
    <path
       style="opacity:0.5;fill:#00ff00;stroke-width:0.095909"
       d="m 54.893591,94.781691 c 0.55201,0.732861 1.507174,0.944863 2.314638,1.258277 1.348518,0.523465 1.498763,0.622835 2.643158,1.187356 0.996806,0.49171 1.993612,0.98343 2.990417,1.47514 0.922956,0.45528 1.87775,0.80978 2.800549,1.26499 0.337773,0.166616 0.65829,0.208236 0.990559,0.372146 0.01145,0.006 0.240078,0.30671 0.268564,0.24896 0.123616,-0.25059 -0.207189,0.091 -0.249851,0.1098 -0.02947,0.013 -0.04922,-0.0518 -0.0787,-0.0388 -0.06585,0.029 -0.109948,0.10654 -0.171156,0.14862 -0.321498,0.22098 -0.697767,0.38003 -1.045628,0.53289 -0.648296,0.2849 -1.424543,0.57238 -2.045024,0.97208 -0.124268,0.08 -0.228209,0.19815 -0.342315,0.29724 -0.239024,0.15396 -0.472602,0.3216 -0.717083,0.46191 -0.120574,0.0692 -0.262795,0.0769 -0.374776,0.1647 -0.108823,0.0854 -0.158416,0.24469 -0.263612,0.33604 -0.255139,0.22154 -0.57231,0.3205 -0.842012,0.51683 -0.267984,0.19507 -0.69022,0.65289 -0.902002,0.83679 -0.738486,0.64123 0.192819,-0.31494 -0.638387,0.50073 -0.207736,0.20386 -0.393321,0.43605 -0.605921,0.63328 -0.08972,0.0832 -0.207759,0.11837 -0.296081,0.20351 -0.503687,0.22801 -0.720502,0.82197 -1.086922,1.21166 -0.230928,0.2456 -0.520954,0.42062 -0.730851,0.68819 -0.497938,0.63476 0.155056,0.005 -0.171152,0.1486 -0.05886,0.0258 -0.04,0.21332 -0.09246,0.18744 -0.03709,-0.0183 -0.01372,-0.0927 -0.03248,-0.13251 -0.456244,-0.96533 -0.126813,-2.08439 -0.08962,-3.19029 0.0082,-0.24259 -0.03807,-0.47599 -0.0374,-0.71758 0.003,-1.06011 0.08691,-0.29388 0.03636,-1.26381 -0.03102,-0.59515 -0.130489,-1.16614 -0.21843,-1.73905 -0.05834,-0.38008 -0.01411,-0.78048 -0.0099,-1.17009 0.01002,-0.920756 -0.103165,-1.886716 -0.195836,-2.776606 -0.03207,-0.30789 -0.226806,-1.009544 -0.370886,-1.231651 -0.08588,-0.132458 -0.21512,-0.24911 -0.301016,-0.381533 -0.04685,-0.07229 -0.01806,-0.192825 -0.06493,-0.265075 -0.01656,-0.02556 -0.07108,-0.0075 -0.0787,-0.03882 -0.06717,-0.27422 0.244833,0.13081 0.01376,-0.226255 -0.01656,-0.02556 -0.07843,-0.0053 -0.0787,-0.03882 -0.0015,-0.180105 0.04917,-0.364141 0.07376,-0.546219 z"
       id="path1842" />
    <path
       style="opacity:0.5;fill:#aa0000;stroke-width:0.095909"
       d="m 65.015999,99.735854 c 0.649114,0.648416 1.624548,0.724696 2.467919,0.922056 1.408489,0.32965 1.571159,0.40702 2.78328,0.80588 1.055796,0.34742 2.111592,0.69483 3.167389,1.04225 0.977576,0.32168 1.972577,0.53911 2.949987,0.86073 0.357763,0.11772 0.68095,0.11409 1.032882,0.22989 0.01213,0.004 0.280628,0.27011 0.300755,0.20895 0.08734,-0.26543 -0.192414,0.11915 -0.23203,0.14367 -0.02738,0.017 -0.05599,-0.0444 -0.08335,-0.0274 -0.06116,0.0379 -0.09396,0.12088 -0.14868,0.1711 -0.28742,0.26379 -0.637734,0.47393 -0.960787,0.67395 -0.602061,0.37279 -1.330451,0.76606 -1.888909,1.24863 -0.111845,0.0966 -0.198241,0.22814 -0.297362,0.34221 -0.215135,0.1859 -0.42296,0.38458 -0.645402,0.5577 -0.109707,0.0854 -0.249458,0.11287 -0.348048,0.21551 -0.09581,0.0998 -0.122617,0.26447 -0.214007,0.36963 -0.221632,0.25504 -0.521834,0.3974 -0.761418,0.62954 -0.238057,0.23064 -0.592086,0.74304 -0.776057,0.95475 -0.641509,0.73825 0.146857,-0.3388 -0.562049,0.58513 -0.177173,0.23091 -0.328446,0.48679 -0.511362,0.71182 -0.07719,0.095 -0.189153,0.14628 -0.264696,0.24294 -0.466833,0.29623 -0.598416,0.91468 -0.906712,1.35182 -0.194292,0.27549 -0.45698,0.48935 -0.627378,0.78366 -0.404231,0.69818 0.154264,-0.0165 -0.14868,0.1711 -0.05467,0.0338 -0.0098,0.2168 -0.06532,0.19852 -0.03929,-0.0129 -0.02656,-0.0899 -0.0507,-0.12667 -0.586815,-0.892 -0.417192,-2.04613 -0.535088,-3.14637 -0.02586,-0.24133 -0.104296,-0.46596 -0.137432,-0.70528 -0.145391,-1.0501 0.04494,-0.30315 -0.140816,-1.25647 -0.11398,-0.58496 -0.292362,-1.1364 -0.459592,-1.69139 -0.110938,-0.36817 -0.123169,-0.77082 -0.173483,-1.1572 -0.118904,-0.91311 -0.366118,-1.85373 -0.582382,-2.7219 -0.07482,-0.30038 -0.365818,-0.96788 -0.539556,-1.16765 -0.103565,-0.11914 -0.247857,-0.21656 -0.351435,-0.33566 -0.05651,-0.065 -0.04486,-0.1884 -0.101381,-0.25338 -0.01997,-0.023 -0.07143,0.002 -0.08335,-0.0274 -0.104876,-0.26214 0.260727,0.0953 -0.01803,-0.22596 -0.01997,-0.023 -0.0784,0.006 -0.08335,-0.0274 -0.0267,-0.17813 -0.0023,-0.367436 -0.0034,-0.551166 z"
       id="path1844" />
    <path
       style="opacity:0.5;fill:#ffff00;stroke-width:0.095909"
       d="m 76.239901,103.64499 c 0.908203,0.13029 1.734899,-0.39302 2.528399,-0.74028 1.325241,-0.57987 1.501833,-0.61539 2.711301,-1.02222 1.053486,-0.35436 2.106971,-0.70873 3.160456,-1.06309 0.975434,-0.32811 1.902368,-0.75013 2.877636,-1.078186 0.35698,-0.12007 0.613569,-0.31661 0.964731,-0.43473 0.0121,-0.004 0.386511,0.0481 0.365985,-0.0129 -0.08909,-0.26485 -0.08268,0.21066 -0.09971,0.25403 -0.01175,0.03 -0.07145,-0.002 -0.08317,0.028 -0.02627,0.067 -0.0028,0.15307 -0.01654,0.22607 -0.07209,0.383406 -0.226688,0.761516 -0.365509,1.115216 -0.258716,0.65917 -0.606309,1.41044 -0.764339,2.1314 -0.03165,0.14439 -0.02205,0.30142 -0.03308,0.45213 -0.06088,0.27774 -0.108251,0.56132 -0.18263,0.83322 -0.03669,0.13408 -0.132116,0.23981 -0.149562,0.38106 -0.01695,0.13726 0.06026,0.28521 0.05009,0.42416 -0.02465,0.337 -0.179731,0.63082 -0.232488,0.96022 -0.05243,0.32729 -0.02891,0.94965 -0.04937,1.22939 -0.07135,0.97543 -0.08539,-0.35926 -0.09946,0.80523 -0.0035,0.29103 0.02865,0.58652 0.01702,0.87629 -0.0049,0.12228 -0.06382,0.23042 -0.06639,0.35308 -0.196305,0.51687 0.06885,1.09088 0.0839,1.62558 0.0095,0.33698 -0.07272,0.66558 -0.03283,1.00332 0.09463,0.8012 0.113622,-0.10564 -0.01654,0.22607 -0.02352,0.0598 0.122081,0.17944 0.06663,0.19809 -0.03921,0.0132 -0.07513,-0.0561 -0.116478,-0.071 -1.004251,-0.36266 -1.559881,-1.38835 -2.313429,-2.19865 -0.165292,-0.17774 -0.362673,-0.31061 -0.532582,-0.48237 -0.74552,-0.75367 -0.145627,-0.26965 -0.865499,-0.92165 -0.441704,-0.40006 -0.914909,-0.73473 -1.381297,-1.07891 -0.3094,-0.22832 -0.56042,-0.54338 -0.832183,-0.8226 -0.642247,-0.65986 -1.403713,-1.26487 -2.096997,-1.83044 -0.239866,-0.19567 -0.872759,-0.55579 -1.131547,-0.61165 -0.154267,-0.0333 -0.328195,-0.0249 -0.482484,-0.0582 -0.08416,-0.0181 -0.14879,-0.12397 -0.232968,-0.14213 -0.02978,-0.006 -0.0557,0.0448 -0.08317,0.028 -0.241016,-0.14706 0.265833,-0.0799 -0.149804,-0.17012 -0.02978,-0.006 -0.0594,0.0514 -0.08317,0.028 -0.128093,-0.12662 -0.221948,-0.29285 -0.332924,-0.43928 z"
       id="path1846" />
    <path
       style="opacity:0.5;fill:#800080;stroke-width:0.095909"
       d="m 88.5283,99.349834 c 0.904294,0.1551 1.745003,-0.34539 2.547713,-0.67079 1.340613,-0.5434 1.518113,-0.57405 2.738263,-0.94763 1.06279,-0.3254 2.12558,-0.6508 3.188369,-0.976187 0.984049,-0.30129 1.922186,-0.69778 2.906068,-0.99902 0.360137,-0.11027 0.622007,-0.2997 0.976267,-0.40817 0.0122,-0.004 0.38505,0.0587 0.3662,-0.003 -0.0818,-0.26719 -0.0884,0.20832 -0.10662,0.25122 -0.0126,0.0297 -0.0714,-0.004 -0.0839,0.0257 -0.0281,0.0662 -0.007,0.15293 -0.0227,0.22552 -0.0826,0.3813 -0.24744,0.75504 -0.39589,1.104797 -0.27666,0.65186 -0.64469,1.39332 -0.822394,2.10968 -0.03559,0.14347 -0.03029,0.30071 -0.04544,0.45106 -0.06846,0.27597 -0.123574,0.558146 -0.205366,0.827906 -0.04034,0.13302 -0.138631,0.23611 -0.159934,0.37683 -0.0207,0.13674 0.05242,0.28674 0.03847,0.42536 -0.03387,0.3362 -0.19693,0.62567 -0.25868,0.95351 -0.06137,0.32573 -0.0549,0.9485 -0.083,1.22757 -0.09802,0.97311 -0.07553,-0.36146 -0.121464,0.8022 -0.01148,0.29083 0.01259,0.5871 -0.007,0.87643 -0.0083,0.12211 -0.0701,0.22861 -0.07603,0.35115 -0.210378,0.5113 0.03897,1.09235 0.03937,1.62726 2.52e-4,0.3371 -0.09091,0.66333 -0.06028,1.00204 0.07267,0.80349 0.116472,-0.10249 -0.02272,0.22553 -0.02515,0.0591 0.117124,0.18272 0.06119,0.19984 -0.03956,0.0121 -0.07357,-0.0581 -0.11449,-0.0742 -0.993946,-0.39 -1.521297,-1.43053 -2.252383,-2.26114 -0.160368,-0.1822 -0.354038,-0.32043 -0.519182,-0.49678 -0.724613,-0.77378 -0.138202,-0.27352 -0.83995,-0.94499 -0.430588,-0.412 -0.894455,-0.75949 -1.351246,-1.1163 -0.303036,-0.2367 -0.545341,-0.55852 -0.809357,-0.84507 -0.623949,-0.6772 -1.36857,-1.30283 -2.046115,-1.88715 -0.23442,-0.20217 -0.85722,-0.57947 -1.11438,-0.64239 -0.153298,-0.0375 -0.32739,-0.0339 -0.480709,-0.0714 -0.08364,-0.0204 -0.145343,-0.127996 -0.228994,-0.148456 -0.02959,-0.007 -0.0569,0.0433 -0.08391,0.0257 -0.236898,-0.15359 0.26792,-0.0726 -0.145092,-0.17416 -0.02959,-0.007 -0.06079,0.0498 -0.08391,0.0257 -0.12458,-0.13007 -0.213847,-0.2988 -0.320773,-0.44822 z"
       id="path1848" />
    <path
       id="path3853"
       style="opacity:0.5;fill:url(#radialGradient7401);fill-opacity:1;fill-rule:evenodd;stroke-width:0.14308"
       d="m 118.34645,153.22648 c -2.2248,0.53338 -4.50322,2.25583 -4.93548,5.5088 -0.5882,4.42639 2.01234,12.12483 4.41821,14.0344 a 1.5401594,1.4983381 0 0 0 -0.54878,1.55899 1.5401594,1.4983381 0 0 0 1.00526,1.04565 l 0.68303,9.33012 c 0.34024,-3.01627 0.41439,-5.74882 -0.4973,-9.28133 a 1.5401594,1.4983381 0 0 0 0.60549,-0.002 c 0.39159,0.72115 0.99605,1.27359 1.6353,1.79806 l -1.40562,-1.86165 a 1.5401594,1.4983381 0 0 0 0.95605,-1.77921 1.5401594,1.4983381 0 0 0 -0.32357,-0.60197 c 2.83848,-1.21022 7.01348,-6.83012 7.55404,-10.89799 0.64337,-4.84162 -3.58749,-8.00925 -6.14656,-8.8225 -0.83969,-0.26685 -1.91354,-0.28994 -3.00007,-0.0295 z m 2.36572,23.99278 7.87057,10.42318 c -0.43813,-1.6482 -1.05246,-3.71856 -2.10392,-5.04215 -0.99113,-1.24764 -2.40992,-2.0724 -3.52306,-3.1994 -0.28026,-0.28375 -0.46894,-0.64597 -0.75479,-0.9244 -0.45982,-0.44788 -0.98506,-0.84394 -1.4888,-1.25723 z m -1.74348,7.48518 c -0.11182,0.99127 -0.25214,2.01274 -0.39587,3.10393 -0.0882,0.66982 -0.0568,1.32998 0.49358,1.85679 0.0293,0.028 0.0839,-0.0503 0.11929,-0.03 0.20018,0.11472 -0.16796,0.16607 0.15014,0.086 z" />
    <path
       id="path3973"
       style="opacity:0.5;fill:url(#radialGradient5668);fill-opacity:1;fill-rule:evenodd;stroke-width:0.123334"
       d="m 129.01011,161.18281 c -1.85158,-0.52073 -4.24051,-0.14244 -5.91953,2.1971 -2.28469,3.18348 -3.60649,10.24158 -2.64576,12.73161 a 1.2900972,1.3291142 0 0 0 -1.05467,0.97779 1.2900972,1.3291142 0 0 0 0.29764,1.23244 l -3.40858,7.51757 c 1.51253,-2.19473 2.71147,-4.28132 3.52406,-7.40177 a 1.2900972,1.3291142 0 0 0 0.44391,0.25273 c -0.0155,0.7233 0.19542,1.40522 0.44352,2.08008 l -0.2488,-2.03294 a 1.2900972,1.3291142 0 0 0 1.44498,-0.97747 1.2900972,1.3291142 0 0 0 0.0154,-0.60237 c 2.58422,0.25383 7.99377,-2.34867 10.09341,-5.2743 2.499,-3.48211 0.72972,-7.71335 -0.80238,-9.41805 -0.50272,-0.55936 -1.27891,-1.02811 -2.18317,-1.28242 z m -8.31941,19.58755 1.39351,11.38241 c 0.36981,-1.46131 0.78752,-3.32375 0.5725,-4.79099 -0.20269,-1.38304 -0.89549,-2.61792 -1.238,-3.95869 -0.0862,-0.33758 -0.0726,-0.69751 -0.16514,-1.03331 -0.14888,-0.54017 -0.36735,-1.06763 -0.56287,-1.59942 z m -4.41149,5.06896 c -0.49707,0.72128 -1.02766,1.45401 -1.58995,2.23933 -0.34516,0.48207 -0.59867,1.0069 -0.41661,1.64624 0.01,0.034 0.0825,-0.004 0.0999,0.0268 0.0984,0.17296 -0.19248,0.0582 0.0738,0.12971 z" />
    <path
       id="path9473"
       style="opacity:0.5;fill:url(#radialGradient9475);fill-opacity:1;fill-rule:evenodd;stroke-width:0.123334"
       d="m 106.98499,165.23012 c -0.93044,1.72949 -1.14072,4.21013 0.66679,6.44575 2.45951,3.04208 8.80098,6.04004 11.37687,5.66949 a 1.2900972,1.3291142 0 0 0 0.67167,1.28759 1.2900972,1.3291142 0 0 0 1.23272,-0.005 l 6.27945,5.19548 c -1.71048,-2.03463 -3.39339,-3.72975 -6.14286,-5.28357 a 1.2900972,1.3291142 0 0 0 0.34366,-0.38429 c 0.67833,0.18719 1.37138,0.13793 2.06659,0.0498 l -1.97592,-0.23347 a 1.2900972,1.3291142 0 0 0 -0.57874,-1.67814 1.2900972,1.3291142 0 0 0 -0.56433,-0.15833 c 0.85265,-2.52608 -0.31743,-8.55765 -2.57773,-11.35331 -2.69023,-3.32744 -7.09983,-2.56093 -9.07083,-1.43217 -0.64673,0.37037 -1.27294,1.03595 -1.72734,1.88058 z m 16.49489,12.97485 11.06334,1.30676 c -1.29012,-0.71692 -2.9471,-1.57698 -4.38161,-1.71001 -1.35219,-0.12539 -2.68099,0.27491 -4.02652,0.29949 -0.33877,0.006 -0.67491,-0.0929 -1.01351,-0.08 -0.54466,0.0208 -1.09386,0.11427 -1.6417,0.18374 z m 3.73261,5.61808 c 0.56213,0.66865 1.12711,1.37358 1.73415,2.12269 0.37263,0.45984 0.80733,0.83812 1.45338,0.80765 0.0344,-0.002 0.0162,-0.0834 0.049,-0.0936 0.18644,-0.0575 0.009,0.20646 0.13984,-0.0431 z" />
    <path
       id="path13766"
       style="opacity:0.5;fill:url(#radialGradient13776);fill-opacity:1;fill-rule:evenodd;stroke-width:0.14308"
       d="m 74.515209,121.69875 c -2.224794,0.53338 -4.503217,2.25583 -4.935481,5.5088 -0.588194,4.42639 2.012339,12.12483 4.418211,14.0344 a 1.5401594,1.4983381 0 0 0 -0.548781,1.55899 1.5401594,1.4983381 0 0 0 1.005264,1.04565 l 0.683026,9.33012 c 0.340244,-3.01627 0.414394,-5.74882 -0.497302,-9.28133 a 1.5401594,1.4983381 0 0 0 0.605496,-0.002 c 0.391585,0.72115 0.996047,1.27359 1.635294,1.79806 l -1.40562,-1.86165 a 1.5401594,1.4983381 0 0 0 0.956054,-1.77921 1.5401594,1.4983381 0 0 0 -0.323573,-0.60197 c 2.838484,-1.21022 7.013488,-6.83012 7.554042,-10.89799 0.643371,-4.84162 -3.587487,-8.00925 -6.146557,-8.8225 -0.839695,-0.26685 -1.913545,-0.28994 -3.000073,-0.0295 z m 2.365726,23.99278 7.870567,10.42318 c -0.438132,-1.6482 -1.052462,-3.71856 -2.10392,-5.04215 -0.991127,-1.24764 -2.409926,-2.0724 -3.523062,-3.1994 -0.280263,-0.28375 -0.468941,-0.64597 -0.754793,-0.9244 -0.459821,-0.44788 -0.985056,-0.84394 -1.488792,-1.25723 z m -1.743487,7.48518 c -0.111816,0.99127 -0.252136,2.01274 -0.395863,3.10393 -0.08823,0.66982 -0.05676,1.32998 0.493578,1.85679 0.02928,0.028 0.0839,-0.0503 0.119289,-0.03 0.200182,0.11472 -0.167966,0.16607 0.150137,0.086 z" />
    <path
       id="path13768"
       style="opacity:0.5;fill:url(#radialGradient13774);fill-opacity:1;fill-rule:evenodd;stroke-width:0.123334"
       d="m 85.17887,129.65508 c -1.851578,-0.52073 -4.240512,-0.14244 -5.919532,2.1971 -2.284688,3.18348 -3.606488,10.24158 -2.645756,12.73161 a 1.2900972,1.3291142 0 0 0 -1.054673,0.97779 1.2900972,1.3291142 0 0 0 0.297642,1.23244 l -3.408578,7.51757 c 1.512524,-2.19473 2.711469,-4.28132 3.524055,-7.40177 a 1.2900972,1.3291142 0 0 0 0.443917,0.25273 c -0.01552,0.7233 0.195411,1.40522 0.44352,2.08008 l -0.248802,-2.03294 a 1.2900972,1.3291142 0 0 0 1.444977,-0.97747 1.2900972,1.3291142 0 0 0 0.01537,-0.60237 c 2.584223,0.25383 7.993775,-2.34867 10.093409,-5.2743 2.499006,-3.48211 0.729725,-7.71335 -0.802376,-9.41805 -0.502719,-0.55936 -1.278913,-1.02811 -2.183173,-1.28242 z m -8.319405,19.58755 1.393506,11.38241 c 0.369808,-1.46131 0.787515,-3.32375 0.572495,-4.79099 -0.202683,-1.38304 -0.89549,-2.61792 -1.237999,-3.95869 -0.08624,-0.33758 -0.07258,-0.69751 -0.165135,-1.03331 -0.148885,-0.54017 -0.367353,-1.06763 -0.562867,-1.59942 z m -4.411492,5.06896 c -0.497075,0.72128 -1.027666,1.45401 -1.58995,2.23933 -0.34516,0.48207 -0.598674,1.0069 -0.416609,1.64624 0.0097,0.034 0.08247,-0.004 0.09987,0.0268 0.09844,0.17296 -0.192486,0.0582 0.07383,0.12971 z" />
    <path
       id="path13770"
       style="opacity:0.5;fill:url(#radialGradient13772);fill-opacity:1;fill-rule:evenodd;stroke-width:0.123334"
       d="m 63.153748,133.70239 c -0.930437,1.72949 -1.140714,4.21013 0.666789,6.44575 2.459513,3.04208 8.800988,6.04004 11.376874,5.66949 a 1.2900972,1.3291142 0 0 0 0.671673,1.28759 1.2900972,1.3291142 0 0 0 1.232719,-0.005 l 6.279449,5.19548 c -1.710477,-2.03463 -3.393395,-3.72975 -6.14286,-5.28357 a 1.2900972,1.3291142 0 0 0 0.343659,-0.38429 c 0.678326,0.18719 1.371379,0.13793 2.066592,0.0498 l -1.975925,-0.23347 a 1.2900972,1.3291142 0 0 0 -0.578736,-1.67814 1.2900972,1.3291142 0 0 0 -0.564334,-0.15833 c 0.852654,-2.52608 -0.317424,-8.55765 -2.577726,-11.35331 -2.690231,-3.32744 -7.099835,-2.56093 -9.070833,-1.43217 -0.646733,0.37037 -1.272938,1.03595 -1.727341,1.88058 z m 16.494895,12.97485 11.063334,1.30676 c -1.290114,-0.71692 -2.9471,-1.57698 -4.381607,-1.71001 -1.352192,-0.12539 -2.680993,0.27491 -4.026516,0.29949 -0.338771,0.006 -0.674914,-0.0929 -1.013511,-0.08 -0.544664,0.0208 -1.093861,0.11427 -1.641699,0.18374 z m 3.732609,5.61808 c 0.562133,0.66865 1.127106,1.37358 1.734146,2.12269 0.372628,0.45984 0.807333,0.83812 1.453383,0.80765 0.03437,-0.002 0.01616,-0.0834 0.04897,-0.0936 0.186437,-0.0575 0.0092,0.20646 0.13984,-0.0431 z" />
    <path
       style="opacity:0.5;fill:#00ff00;stroke-width:0.095909"
       d="m 93.918771,131.88446 c 0.55201,0.73286 1.507174,0.94486 2.314638,1.25827 1.348518,0.52347 1.498763,0.62284 2.643158,1.18736 0.996806,0.49171 1.993613,0.98343 2.990413,1.47514 0.92296,0.45528 1.87775,0.80978 2.80055,1.26499 0.33777,0.16661 0.65829,0.20823 0.99056,0.37214 0.0114,0.006 0.24008,0.30671 0.26856,0.24896 0.12362,-0.25059 -0.20718,0.091 -0.24985,0.1098 -0.0295,0.013 -0.0492,-0.0518 -0.0787,-0.0388 -0.0658,0.029 -0.10994,0.10654 -0.17115,0.14862 -0.3215,0.22098 -0.69777,0.38003 -1.04563,0.53289 -0.6483,0.2849 -1.42454,0.57238 -2.04502,0.97208 -0.12427,0.08 -0.22821,0.19815 -0.34232,0.29724 -0.23902,0.15396 -0.4726,0.3216 -0.71708,0.46191 -0.12058,0.0692 -0.2628,0.0769 -0.37478,0.1647 -0.10882,0.0854 -0.15841,0.24469 -0.26361,0.33604 -0.25514,0.22154 -0.57231,0.3205 -0.842011,0.51683 -0.267984,0.19507 -0.69022,0.65289 -0.902002,0.83679 -0.738486,0.64123 0.192819,-0.31494 -0.638387,0.50073 -0.207736,0.20386 -0.393321,0.43605 -0.605921,0.63328 -0.08972,0.0832 -0.207759,0.11837 -0.296081,0.20351 -0.503687,0.22801 -0.720502,0.82197 -1.086922,1.21166 -0.230928,0.2456 -0.520954,0.42062 -0.730851,0.68819 -0.497938,0.63476 0.155056,0.005 -0.171152,0.1486 -0.05886,0.0258 -0.04,0.21332 -0.09246,0.18744 -0.03709,-0.0183 -0.01372,-0.0927 -0.03248,-0.13251 -0.456244,-0.96533 -0.126813,-2.08439 -0.08962,-3.19029 0.0082,-0.24259 -0.03807,-0.47599 -0.0374,-0.71758 0.003,-1.06011 0.08691,-0.29388 0.03636,-1.26381 -0.03102,-0.59515 -0.130489,-1.16614 -0.21843,-1.73905 -0.05834,-0.38008 -0.01411,-0.78048 -0.0099,-1.17009 0.01002,-0.92075 -0.103165,-1.88671 -0.195836,-2.7766 -0.03207,-0.30789 -0.226806,-1.00955 -0.370886,-1.23165 -0.08588,-0.13246 -0.21512,-0.24911 -0.301016,-0.38154 -0.04685,-0.0723 -0.01806,-0.19282 -0.06493,-0.26507 -0.01656,-0.0256 -0.07108,-0.008 -0.0787,-0.0388 -0.06717,-0.27422 0.244833,0.13081 0.01376,-0.22626 -0.01656,-0.0256 -0.07843,-0.005 -0.0787,-0.0388 -0.0015,-0.1801 0.04917,-0.36414 0.07376,-0.54621 z"
       id="path13778" />
    <path
       style="opacity:0.5;fill:#aa0000;stroke-width:0.095909"
       d="m 104.04118,136.83862 c 0.64911,0.64841 1.62455,0.72469 2.46792,0.92205 1.40849,0.32965 1.57116,0.40702 2.78328,0.80588 1.05579,0.34742 2.11159,0.69483 3.16739,1.04225 0.97757,0.32168 1.97257,0.53911 2.94998,0.86073 0.35777,0.11772 0.68095,0.11409 1.03288,0.22989 0.0121,0.004 0.28063,0.27011 0.30076,0.20895 0.0873,-0.26543 -0.19241,0.11915 -0.23203,0.14367 -0.0274,0.017 -0.056,-0.0444 -0.0833,-0.0274 -0.0612,0.0379 -0.094,0.12088 -0.14868,0.1711 -0.28742,0.26379 -0.63773,0.47393 -0.96079,0.67395 -0.60206,0.37279 -1.33045,0.76606 -1.88891,1.24863 -0.11184,0.0966 -0.19824,0.22814 -0.29736,0.34221 -0.21513,0.1859 -0.42296,0.38458 -0.6454,0.5577 -0.10971,0.0854 -0.24946,0.11287 -0.34805,0.21551 -0.0958,0.0998 -0.12262,0.26447 -0.21401,0.36963 -0.22163,0.25504 -0.52183,0.3974 -0.76141,0.62954 -0.23806,0.23064 -0.59209,0.74304 -0.77606,0.95475 -0.64151,0.73825 0.14686,-0.3388 -0.56205,0.58513 -0.17717,0.23091 -0.32845,0.48679 -0.51136,0.71182 -0.0772,0.095 -0.18915,0.14628 -0.2647,0.24294 -0.46683,0.29623 -0.59841,0.91468 -0.90671,1.35182 -0.19429,0.27549 -0.45698,0.48935 -0.62738,0.78366 -0.40423,0.69818 0.15427,-0.0165 -0.14868,0.1711 -0.0547,0.0338 -0.01,0.2168 -0.0653,0.19852 -0.0393,-0.0129 -0.0266,-0.0899 -0.0507,-0.12667 -0.58681,-0.892 -0.41719,-2.04613 -0.53509,-3.14637 -0.0259,-0.24133 -0.10429,-0.46596 -0.13743,-0.70528 -0.14539,-1.0501 0.0449,-0.30315 -0.14081,-1.25647 -0.11398,-0.58496 -0.29237,-1.1364 -0.4596,-1.69139 -0.11093,-0.36817 -0.12316,-0.77082 -0.17348,-1.1572 -0.1189,-0.91311 -0.36612,-1.85373 -0.58238,-2.7219 -0.0748,-0.30038 -0.36582,-0.96788 -0.53956,-1.16765 -0.10356,-0.11914 -0.24785,-0.21656 -0.35143,-0.33566 -0.0565,-0.065 -0.0449,-0.1884 -0.10138,-0.25338 -0.02,-0.023 -0.0714,0.002 -0.0834,-0.0274 -0.10488,-0.26214 0.26072,0.0953 -0.018,-0.22596 -0.02,-0.023 -0.0784,0.006 -0.0833,-0.0274 -0.0267,-0.17813 -0.002,-0.36743 -0.003,-0.55116 z"
       id="path13780" />
    <path
       style="opacity:0.5;fill:#ffff00;stroke-width:0.095909"
       d="m 115.26508,140.74775 c 0.9082,0.13029 1.7349,-0.39302 2.5284,-0.74028 1.32524,-0.57987 1.50183,-0.61539 2.7113,-1.02222 1.05349,-0.35436 2.10697,-0.70873 3.16046,-1.06309 0.97543,-0.32811 1.90236,-0.75013 2.87763,-1.07818 0.35698,-0.12007 0.61357,-0.31661 0.96473,-0.43473 0.0121,-0.004 0.38651,0.0481 0.36599,-0.0129 -0.0891,-0.26485 -0.0827,0.21066 -0.0997,0.25403 -0.0117,0.03 -0.0714,-0.002 -0.0832,0.028 -0.0263,0.067 -0.003,0.15307 -0.0165,0.22607 -0.0721,0.3834 -0.22669,0.76151 -0.36551,1.11521 -0.25872,0.65917 -0.60631,1.41044 -0.76434,2.1314 -0.0316,0.14439 -0.0221,0.30142 -0.0331,0.45213 -0.0609,0.27774 -0.10825,0.56132 -0.18263,0.83322 -0.0367,0.13408 -0.13212,0.23981 -0.14956,0.38106 -0.017,0.13726 0.0603,0.28521 0.0501,0.42416 -0.0247,0.337 -0.17973,0.63082 -0.23249,0.96022 -0.0524,0.32729 -0.0289,0.94965 -0.0494,1.22939 -0.0713,0.97543 -0.0854,-0.35926 -0.0995,0.80523 -0.004,0.29103 0.0286,0.58652 0.017,0.87629 -0.005,0.12228 -0.0638,0.23042 -0.0664,0.35308 -0.19631,0.51687 0.0688,1.09088 0.0839,1.62558 0.01,0.33698 -0.0727,0.66558 -0.0328,1.00332 0.0946,0.8012 0.11362,-0.10564 -0.0165,0.22607 -0.0235,0.0598 0.12208,0.17944 0.0666,0.19809 -0.0392,0.0132 -0.0751,-0.0561 -0.11648,-0.071 -1.00425,-0.36266 -1.55988,-1.38835 -2.31343,-2.19865 -0.16529,-0.17774 -0.36267,-0.31061 -0.53258,-0.48237 -0.74552,-0.75367 -0.14563,-0.26965 -0.8655,-0.92165 -0.4417,-0.40006 -0.91491,-0.73473 -1.3813,-1.07891 -0.3094,-0.22832 -0.56042,-0.54338 -0.83218,-0.8226 -0.64225,-0.65986 -1.40371,-1.26487 -2.097,-1.83044 -0.23986,-0.19567 -0.87275,-0.55579 -1.13154,-0.61165 -0.15427,-0.0333 -0.3282,-0.0249 -0.48249,-0.0582 -0.0842,-0.0181 -0.14879,-0.12397 -0.23296,-0.14213 -0.0298,-0.006 -0.0557,0.0448 -0.0832,0.028 -0.24102,-0.14706 0.26583,-0.0799 -0.14981,-0.17012 -0.0298,-0.006 -0.0594,0.0514 -0.0832,0.028 -0.12809,-0.12662 -0.22195,-0.29285 -0.33292,-0.43928 z"
       id="path13782" />
    <path
       style="opacity:0.5;fill:#800080;stroke-width:0.095909"
       d="m 127.55348,136.4526 c 0.90429,0.1551 1.745,-0.34539 2.54771,-0.67079 1.34061,-0.5434 1.51811,-0.57405 2.73826,-0.94763 1.06279,-0.3254 2.12558,-0.6508 3.18837,-0.97619 0.98405,-0.30129 1.92219,-0.69778 2.90607,-0.99902 0.36014,-0.11027 0.62201,-0.2997 0.97627,-0.40817 0.0122,-0.004 0.38505,0.0587 0.3662,-0.003 -0.0818,-0.26719 -0.0884,0.20832 -0.10662,0.25122 -0.0126,0.0297 -0.0714,-0.004 -0.0839,0.0257 -0.0281,0.0662 -0.007,0.15293 -0.0227,0.22552 -0.0826,0.3813 -0.24744,0.75504 -0.39589,1.1048 -0.27666,0.65186 -0.64469,1.39332 -0.8224,2.10968 -0.0356,0.14347 -0.0303,0.30071 -0.0454,0.45106 -0.0685,0.27597 -0.12357,0.55814 -0.20536,0.8279 -0.0403,0.13302 -0.13863,0.23611 -0.15994,0.37683 -0.0207,0.13674 0.0524,0.28674 0.0385,0.42536 -0.0339,0.3362 -0.19693,0.62567 -0.25868,0.95351 -0.0614,0.32573 -0.0549,0.9485 -0.083,1.22757 -0.098,0.97311 -0.0755,-0.36146 -0.12146,0.8022 -0.0115,0.29083 0.0126,0.5871 -0.007,0.87643 -0.008,0.12211 -0.0701,0.22861 -0.076,0.35115 -0.21038,0.5113 0.039,1.09235 0.0394,1.62726 2.5e-4,0.3371 -0.0909,0.66333 -0.0603,1.00204 0.0727,0.80349 0.11647,-0.10249 -0.0227,0.22553 -0.0251,0.0591 0.11712,0.18272 0.0612,0.19984 -0.0396,0.0121 -0.0736,-0.0581 -0.11449,-0.0742 -0.99395,-0.39 -1.5213,-1.43053 -2.25238,-2.26114 -0.16037,-0.1822 -0.35404,-0.32043 -0.51918,-0.49678 -0.72462,-0.77378 -0.13821,-0.27352 -0.83995,-0.94499 -0.43059,-0.412 -0.89446,-0.75949 -1.35125,-1.1163 -0.30304,-0.2367 -0.54534,-0.55852 -0.80936,-0.84507 -0.62395,-0.6772 -1.36857,-1.30283 -2.04611,-1.88715 -0.23442,-0.20217 -0.85722,-0.57947 -1.11438,-0.64239 -0.1533,-0.0375 -0.32739,-0.0339 -0.48071,-0.0714 -0.0836,-0.0204 -0.14534,-0.12799 -0.229,-0.14845 -0.0296,-0.007 -0.0569,0.0433 -0.0839,0.0257 -0.23689,-0.15359 0.26792,-0.0726 -0.14509,-0.17416 -0.0296,-0.007 -0.0608,0.0498 -0.0839,0.0257 -0.12458,-0.13007 -0.21384,-0.2988 -0.32077,-0.44822 z"
       id="path13784" />
    <path
       style="opacity:0.5;fill:#00ff00;stroke-width:0.095909"
       d="m 93.918771,131.88446 c 0.55201,0.73286 1.507174,0.94486 2.314638,1.25827 1.348518,0.52347 1.498763,0.62284 2.643158,1.18736 0.996806,0.49171 1.993613,0.98343 2.990413,1.47514 0.92296,0.45528 1.87775,0.80978 2.80055,1.26499 0.33777,0.16661 0.65829,0.20823 0.99056,0.37214 0.0114,0.006 0.24008,0.30671 0.26856,0.24896 0.12362,-0.25059 -0.20718,0.091 -0.24985,0.1098 -0.0295,0.013 -0.0492,-0.0518 -0.0787,-0.0388 -0.0658,0.029 -0.10994,0.10654 -0.17115,0.14862 -0.3215,0.22098 -0.69777,0.38003 -1.04563,0.53289 -0.6483,0.2849 -1.42454,0.57238 -2.04502,0.97208 -0.12427,0.08 -0.22821,0.19815 -0.34232,0.29724 -0.23902,0.15396 -0.4726,0.3216 -0.71708,0.46191 -0.12058,0.0692 -0.2628,0.0769 -0.37478,0.1647 -0.10882,0.0854 -0.15841,0.24469 -0.26361,0.33604 -0.25514,0.22154 -0.57231,0.3205 -0.842011,0.51683 -0.267984,0.19507 -0.69022,0.65289 -0.902002,0.83679 -0.738486,0.64123 0.192819,-0.31494 -0.638387,0.50073 -0.207736,0.20386 -0.393321,0.43605 -0.605921,0.63328 -0.08972,0.0832 -0.207759,0.11837 -0.296081,0.20351 -0.503687,0.22801 -0.720502,0.82197 -1.086922,1.21166 -0.230928,0.2456 -0.520954,0.42062 -0.730851,0.68819 -0.497938,0.63476 0.155056,0.005 -0.171152,0.1486 -0.05886,0.0258 -0.04,0.21332 -0.09246,0.18744 -0.03709,-0.0183 -0.01372,-0.0927 -0.03248,-0.13251 -0.456244,-0.96533 -0.126813,-2.08439 -0.08962,-3.19029 0.0082,-0.24259 -0.03807,-0.47599 -0.0374,-0.71758 0.003,-1.06011 0.08691,-0.29388 0.03636,-1.26381 -0.03102,-0.59515 -0.130489,-1.16614 -0.21843,-1.73905 -0.05834,-0.38008 -0.01411,-0.78048 -0.0099,-1.17009 0.01002,-0.92075 -0.103165,-1.88671 -0.195836,-2.7766 -0.03207,-0.30789 -0.226806,-1.00955 -0.370886,-1.23165 -0.08588,-0.13246 -0.21512,-0.24911 -0.301016,-0.38154 -0.04685,-0.0723 -0.01806,-0.19282 -0.06493,-0.26507 -0.01656,-0.0256 -0.07108,-0.008 -0.0787,-0.0388 -0.06717,-0.27422 0.244833,0.13081 0.01376,-0.22626 -0.01656,-0.0256 -0.07843,-0.005 -0.0787,-0.0388 -0.0015,-0.1801 0.04917,-0.36414 0.07376,-0.54621 z"
       id="path13806" />
    <path
       style="opacity:0.5;fill:#aa0000;stroke-width:0.095909"
       d="m 104.04118,136.83862 c 0.64911,0.64841 1.62455,0.72469 2.46792,0.92205 1.40849,0.32965 1.57116,0.40702 2.78328,0.80588 1.05579,0.34742 2.11159,0.69483 3.16739,1.04225 0.97757,0.32168 1.97257,0.53911 2.94998,0.86073 0.35777,0.11772 0.68095,0.11409 1.03288,0.22989 0.0121,0.004 0.28063,0.27011 0.30076,0.20895 0.0873,-0.26543 -0.19241,0.11915 -0.23203,0.14367 -0.0274,0.017 -0.056,-0.0444 -0.0833,-0.0274 -0.0612,0.0379 -0.094,0.12088 -0.14868,0.1711 -0.28742,0.26379 -0.63773,0.47393 -0.96079,0.67395 -0.60206,0.37279 -1.33045,0.76606 -1.88891,1.24863 -0.11184,0.0966 -0.19824,0.22814 -0.29736,0.34221 -0.21513,0.1859 -0.42296,0.38458 -0.6454,0.5577 -0.10971,0.0854 -0.24946,0.11287 -0.34805,0.21551 -0.0958,0.0998 -0.12262,0.26447 -0.21401,0.36963 -0.22163,0.25504 -0.52183,0.3974 -0.76141,0.62954 -0.23806,0.23064 -0.59209,0.74304 -0.77606,0.95475 -0.64151,0.73825 0.14686,-0.3388 -0.56205,0.58513 -0.17717,0.23091 -0.32845,0.48679 -0.51136,0.71182 -0.0772,0.095 -0.18915,0.14628 -0.2647,0.24294 -0.46683,0.29623 -0.59841,0.91468 -0.90671,1.35182 -0.19429,0.27549 -0.45698,0.48935 -0.62738,0.78366 -0.40423,0.69818 0.15427,-0.0165 -0.14868,0.1711 -0.0547,0.0338 -0.01,0.2168 -0.0653,0.19852 -0.0393,-0.0129 -0.0266,-0.0899 -0.0507,-0.12667 -0.58681,-0.892 -0.41719,-2.04613 -0.53509,-3.14637 -0.0259,-0.24133 -0.10429,-0.46596 -0.13743,-0.70528 -0.14539,-1.0501 0.0449,-0.30315 -0.14081,-1.25647 -0.11398,-0.58496 -0.29237,-1.1364 -0.4596,-1.69139 -0.11093,-0.36817 -0.12316,-0.77082 -0.17348,-1.1572 -0.1189,-0.91311 -0.36612,-1.85373 -0.58238,-2.7219 -0.0748,-0.30038 -0.36582,-0.96788 -0.53956,-1.16765 -0.10356,-0.11914 -0.24785,-0.21656 -0.35143,-0.33566 -0.0565,-0.065 -0.0449,-0.1884 -0.10138,-0.25338 -0.02,-0.023 -0.0714,0.002 -0.0834,-0.0274 -0.10488,-0.26214 0.26072,0.0953 -0.018,-0.22596 -0.02,-0.023 -0.0784,0.006 -0.0833,-0.0274 -0.0267,-0.17813 -0.002,-0.36743 -0.003,-0.55116 z"
       id="path13808" />
    <path
       style="opacity:0.5;fill:#ffff00;stroke-width:0.095909"
       d="m 115.26508,140.74775 c 0.9082,0.13029 1.7349,-0.39302 2.5284,-0.74028 1.32524,-0.57987 1.50183,-0.61539 2.7113,-1.02222 1.05349,-0.35436 2.10697,-0.70873 3.16046,-1.06309 0.97543,-0.32811 1.90236,-0.75013 2.87763,-1.07818 0.35698,-0.12007 0.61357,-0.31661 0.96473,-0.43473 0.0121,-0.004 0.38651,0.0481 0.36599,-0.0129 -0.0891,-0.26485 -0.0827,0.21066 -0.0997,0.25403 -0.0117,0.03 -0.0714,-0.002 -0.0832,0.028 -0.0263,0.067 -0.003,0.15307 -0.0165,0.22607 -0.0721,0.3834 -0.22669,0.76151 -0.36551,1.11521 -0.25872,0.65917 -0.60631,1.41044 -0.76434,2.1314 -0.0316,0.14439 -0.0221,0.30142 -0.0331,0.45213 -0.0609,0.27774 -0.10825,0.56132 -0.18263,0.83322 -0.0367,0.13408 -0.13212,0.23981 -0.14956,0.38106 -0.017,0.13726 0.0603,0.28521 0.0501,0.42416 -0.0247,0.337 -0.17973,0.63082 -0.23249,0.96022 -0.0524,0.32729 -0.0289,0.94965 -0.0494,1.22939 -0.0713,0.97543 -0.0854,-0.35926 -0.0995,0.80523 -0.004,0.29103 0.0286,0.58652 0.017,0.87629 -0.005,0.12228 -0.0638,0.23042 -0.0664,0.35308 -0.19631,0.51687 0.0688,1.09088 0.0839,1.62558 0.01,0.33698 -0.0727,0.66558 -0.0328,1.00332 0.0946,0.8012 0.11362,-0.10564 -0.0165,0.22607 -0.0235,0.0598 0.12208,0.17944 0.0666,0.19809 -0.0392,0.0132 -0.0751,-0.0561 -0.11648,-0.071 -1.00425,-0.36266 -1.55988,-1.38835 -2.31343,-2.19865 -0.16529,-0.17774 -0.36267,-0.31061 -0.53258,-0.48237 -0.74552,-0.75367 -0.14563,-0.26965 -0.8655,-0.92165 -0.4417,-0.40006 -0.91491,-0.73473 -1.3813,-1.07891 -0.3094,-0.22832 -0.56042,-0.54338 -0.83218,-0.8226 -0.64225,-0.65986 -1.40371,-1.26487 -2.097,-1.83044 -0.23986,-0.19567 -0.87275,-0.55579 -1.13154,-0.61165 -0.15427,-0.0333 -0.3282,-0.0249 -0.48249,-0.0582 -0.0842,-0.0181 -0.14879,-0.12397 -0.23296,-0.14213 -0.0298,-0.006 -0.0557,0.0448 -0.0832,0.028 -0.24102,-0.14706 0.26583,-0.0799 -0.14981,-0.17012 -0.0298,-0.006 -0.0594,0.0514 -0.0832,0.028 -0.12809,-0.12662 -0.22195,-0.29285 -0.33292,-0.43928 z"
       id="path13810" />
    <path
       style="opacity:0.5;fill:#800080;stroke-width:0.095909"
       d="m 127.55348,136.4526 c 0.90429,0.1551 1.745,-0.34539 2.54771,-0.67079 1.34061,-0.5434 1.51811,-0.57405 2.73826,-0.94763 1.06279,-0.3254 2.12558,-0.6508 3.18837,-0.97619 0.98405,-0.30129 1.92219,-0.69778 2.90607,-0.99902 0.36014,-0.11027 0.62201,-0.2997 0.97627,-0.40817 0.0122,-0.004 0.38505,0.0587 0.3662,-0.003 -0.0818,-0.26719 -0.0884,0.20832 -0.10662,0.25122 -0.0126,0.0297 -0.0714,-0.004 -0.0839,0.0257 -0.0281,0.0662 -0.007,0.15293 -0.0227,0.22552 -0.0826,0.3813 -0.24744,0.75504 -0.39589,1.1048 -0.27666,0.65186 -0.64469,1.39332 -0.8224,2.10968 -0.0356,0.14347 -0.0303,0.30071 -0.0454,0.45106 -0.0685,0.27597 -0.12357,0.55814 -0.20536,0.8279 -0.0403,0.13302 -0.13863,0.23611 -0.15994,0.37683 -0.0207,0.13674 0.0524,0.28674 0.0385,0.42536 -0.0339,0.3362 -0.19693,0.62567 -0.25868,0.95351 -0.0614,0.32573 -0.0549,0.9485 -0.083,1.22757 -0.098,0.97311 -0.0755,-0.36146 -0.12146,0.8022 -0.0115,0.29083 0.0126,0.5871 -0.007,0.87643 -0.008,0.12211 -0.0701,0.22861 -0.076,0.35115 -0.21038,0.5113 0.039,1.09235 0.0394,1.62726 2.5e-4,0.3371 -0.0909,0.66333 -0.0603,1.00204 0.0727,0.80349 0.11647,-0.10249 -0.0227,0.22553 -0.0251,0.0591 0.11712,0.18272 0.0612,0.19984 -0.0396,0.0121 -0.0736,-0.0581 -0.11449,-0.0742 -0.99395,-0.39 -1.5213,-1.43053 -2.25238,-2.26114 -0.16037,-0.1822 -0.35404,-0.32043 -0.51918,-0.49678 -0.72462,-0.77378 -0.13821,-0.27352 -0.83995,-0.94499 -0.43059,-0.412 -0.89446,-0.75949 -1.35125,-1.1163 -0.30304,-0.2367 -0.54534,-0.55852 -0.80936,-0.84507 -0.62395,-0.6772 -1.36857,-1.30283 -2.04611,-1.88715 -0.23442,-0.20217 -0.85722,-0.57947 -1.11438,-0.64239 -0.1533,-0.0375 -0.32739,-0.0339 -0.48071,-0.0714 -0.0836,-0.0204 -0.14534,-0.12799 -0.229,-0.14845 -0.0296,-0.007 -0.0569,0.0433 -0.0839,0.0257 -0.23689,-0.15359 0.26792,-0.0726 -0.14509,-0.17416 -0.0296,-0.007 -0.0608,0.0498 -0.0839,0.0257 -0.12458,-0.13007 -0.21384,-0.2988 -0.32077,-0.44822 z"
       id="path13812" />
    <path
       style="opacity:0.5;fill:#00ff00;stroke-width:0.095909"
       d="m 20.866709,169.56394 c 0.55201,0.73286 1.507174,0.94486 2.314638,1.25827 1.348518,0.52347 1.498763,0.62284 2.643158,1.18736 0.996806,0.49171 1.993615,0.98343 2.990415,1.47514 0.92296,0.45528 1.87775,0.80978 2.80055,1.26499 0.33777,0.16661 0.65829,0.20823 0.99056,0.37214 0.0114,0.006 0.24008,0.30671 0.26856,0.24896 0.12362,-0.25059 -0.20718,0.091 -0.24985,0.1098 -0.0295,0.013 -0.0492,-0.0518 -0.0787,-0.0388 -0.0658,0.029 -0.10994,0.10654 -0.17115,0.14862 -0.3215,0.22098 -0.69777,0.38003 -1.04563,0.53289 -0.6483,0.2849 -1.42454,0.57238 -2.04502,0.97208 -0.12427,0.08 -0.22821,0.19815 -0.34232,0.29724 -0.23902,0.15396 -0.4726,0.3216 -0.71708,0.46191 -0.12058,0.0692 -0.2628,0.0769 -0.37478,0.1647 -0.10882,0.0854 -0.15841,0.24469 -0.26361,0.33604 -0.25514,0.22154 -0.572311,0.3205 -0.842013,0.51683 -0.267984,0.19507 -0.69022,0.65289 -0.902002,0.83679 -0.738486,0.64123 0.192819,-0.31494 -0.638387,0.50073 -0.207736,0.20386 -0.393321,0.43605 -0.605921,0.63328 -0.08972,0.0832 -0.207759,0.11837 -0.296081,0.20351 -0.503687,0.22801 -0.720502,0.82197 -1.086922,1.21166 -0.230928,0.2456 -0.520954,0.42062 -0.730851,0.68819 -0.497938,0.63476 0.155056,0.005 -0.171152,0.1486 -0.05886,0.0258 -0.04,0.21332 -0.09246,0.18744 -0.03709,-0.0183 -0.01372,-0.0927 -0.03248,-0.13251 -0.456244,-0.96533 -0.126813,-2.08439 -0.08962,-3.19029 0.0082,-0.24259 -0.03807,-0.47599 -0.0374,-0.71758 0.003,-1.06011 0.08691,-0.29388 0.03636,-1.26381 -0.03102,-0.59515 -0.130489,-1.16614 -0.21843,-1.73905 -0.05834,-0.38008 -0.01411,-0.78048 -0.0099,-1.17009 0.01002,-0.92075 -0.103165,-1.88671 -0.195836,-2.7766 -0.03207,-0.30789 -0.226806,-1.00955 -0.370886,-1.23165 -0.08588,-0.13246 -0.21512,-0.24911 -0.301016,-0.38154 -0.04685,-0.0723 -0.01806,-0.19282 -0.06493,-0.26507 -0.01656,-0.0256 -0.07108,-0.008 -0.0787,-0.0388 -0.06717,-0.27422 0.244833,0.13081 0.01376,-0.22626 -0.01656,-0.0256 -0.07843,-0.005 -0.0787,-0.0388 -0.0015,-0.1801 0.04917,-0.36414 0.07376,-0.54621 z"
       id="path13814" />
    <path
       style="opacity:0.5;fill:#aa0000;stroke-width:0.095909"
       d="m 30.98912,174.5181 c 0.64911,0.64841 1.62455,0.72469 2.46792,0.92205 1.40849,0.32965 1.57116,0.40702 2.78328,0.80588 1.05579,0.34742 2.11159,0.69483 3.16739,1.04225 0.97757,0.32168 1.97257,0.53911 2.94998,0.86073 0.35777,0.11772 0.68095,0.11409 1.03288,0.22989 0.0121,0.004 0.28063,0.27011 0.30076,0.20895 0.0873,-0.26543 -0.19241,0.11915 -0.23203,0.14367 -0.0274,0.017 -0.056,-0.0444 -0.0833,-0.0274 -0.0612,0.0379 -0.094,0.12088 -0.14868,0.1711 -0.28742,0.26379 -0.63773,0.47393 -0.96079,0.67395 -0.60206,0.37279 -1.33045,0.76606 -1.88891,1.24863 -0.11184,0.0966 -0.19824,0.22814 -0.29736,0.34221 -0.21513,0.1859 -0.42296,0.38458 -0.6454,0.5577 -0.10971,0.0854 -0.24946,0.11287 -0.34805,0.21551 -0.0958,0.0998 -0.12262,0.26447 -0.21401,0.36963 -0.22163,0.25504 -0.52183,0.3974 -0.76141,0.62954 -0.23806,0.23064 -0.59209,0.74304 -0.77606,0.95475 -0.64151,0.73825 0.14686,-0.3388 -0.56205,0.58513 -0.17717,0.23091 -0.32845,0.48679 -0.51136,0.71182 -0.0772,0.095 -0.18915,0.14628 -0.2647,0.24294 -0.46683,0.29623 -0.59841,0.91468 -0.90671,1.35182 -0.19429,0.27549 -0.45698,0.48935 -0.62738,0.78366 -0.40423,0.69818 0.15427,-0.0165 -0.14868,0.1711 -0.0547,0.0338 -0.01,0.2168 -0.0653,0.19852 -0.0393,-0.0129 -0.0266,-0.0899 -0.0507,-0.12667 -0.58681,-0.892 -0.41719,-2.04613 -0.53509,-3.14637 -0.0259,-0.24133 -0.10429,-0.46596 -0.13743,-0.70528 -0.14539,-1.0501 0.0449,-0.30315 -0.14081,-1.25647 -0.11398,-0.58496 -0.29237,-1.1364 -0.4596,-1.69139 -0.11093,-0.36817 -0.12316,-0.77082 -0.17348,-1.1572 -0.1189,-0.91311 -0.36612,-1.85373 -0.58238,-2.7219 -0.0748,-0.30038 -0.36582,-0.96788 -0.53956,-1.16765 -0.10356,-0.11914 -0.24785,-0.21656 -0.35143,-0.33566 -0.0565,-0.065 -0.0449,-0.1884 -0.10138,-0.25338 -0.02,-0.023 -0.0714,0.002 -0.0834,-0.0274 -0.10488,-0.26214 0.26072,0.0953 -0.018,-0.22596 -0.02,-0.023 -0.0784,0.006 -0.0833,-0.0274 -0.0267,-0.17813 -0.002,-0.36743 -0.003,-0.55116 z"
       id="path13816" />
    <path
       style="opacity:0.5;fill:#ffff00;stroke-width:0.095909"
       d="m 42.21302,178.42723 c 0.9082,0.13029 1.7349,-0.39302 2.5284,-0.74028 1.32524,-0.57987 1.50183,-0.61539 2.7113,-1.02222 1.05349,-0.35436 2.10697,-0.70873 3.16046,-1.06309 0.97543,-0.32811 1.90236,-0.75013 2.87763,-1.07818 0.35698,-0.12007 0.61357,-0.31661 0.96473,-0.43473 0.0121,-0.004 0.38651,0.0481 0.36599,-0.0129 -0.0891,-0.26485 -0.0827,0.21066 -0.0997,0.25403 -0.0117,0.03 -0.0714,-0.002 -0.0832,0.028 -0.0263,0.067 -0.003,0.15307 -0.0165,0.22607 -0.0721,0.3834 -0.22669,0.76151 -0.36551,1.11521 -0.25872,0.65917 -0.60631,1.41044 -0.76434,2.1314 -0.0316,0.14439 -0.0221,0.30142 -0.0331,0.45213 -0.0609,0.27774 -0.10825,0.56132 -0.18263,0.83322 -0.0367,0.13408 -0.13212,0.23981 -0.14956,0.38106 -0.017,0.13726 0.0603,0.28521 0.0501,0.42416 -0.0247,0.337 -0.17973,0.63082 -0.23249,0.96022 -0.0524,0.32729 -0.0289,0.94965 -0.0494,1.22939 -0.0713,0.97543 -0.0854,-0.35926 -0.0995,0.80523 -0.004,0.29103 0.0286,0.58652 0.017,0.87629 -0.005,0.12228 -0.0638,0.23042 -0.0664,0.35308 -0.19631,0.51687 0.0688,1.09088 0.0839,1.62558 0.01,0.33698 -0.0727,0.66558 -0.0328,1.00332 0.0946,0.8012 0.11362,-0.10564 -0.0165,0.22607 -0.0235,0.0598 0.12208,0.17944 0.0666,0.19809 -0.0392,0.0132 -0.0751,-0.0561 -0.11648,-0.071 -1.00425,-0.36266 -1.55988,-1.38835 -2.31343,-2.19865 -0.16529,-0.17774 -0.36267,-0.31061 -0.53258,-0.48237 -0.74552,-0.75367 -0.14563,-0.26965 -0.8655,-0.92165 -0.4417,-0.40006 -0.91491,-0.73473 -1.3813,-1.07891 -0.3094,-0.22832 -0.56042,-0.54338 -0.83218,-0.8226 -0.64225,-0.65986 -1.40371,-1.26487 -2.097,-1.83044 -0.23986,-0.19567 -0.87275,-0.55579 -1.13154,-0.61165 -0.15427,-0.0333 -0.3282,-0.0249 -0.48249,-0.0582 -0.0842,-0.0181 -0.14879,-0.12397 -0.23296,-0.14213 -0.0298,-0.006 -0.0557,0.0448 -0.0832,0.028 -0.24102,-0.14706 0.26583,-0.0799 -0.14981,-0.17012 -0.0298,-0.006 -0.0594,0.0514 -0.0832,0.028 -0.12809,-0.12662 -0.22195,-0.29285 -0.33292,-0.43928 z"
       id="path13818" />
    <path
       style="opacity:0.5;fill:#800080;stroke-width:0.095909"
       d="m 54.50142,174.13208 c 0.90429,0.1551 1.745,-0.34539 2.54771,-0.67079 1.34061,-0.5434 1.51811,-0.57405 2.73826,-0.94763 1.06279,-0.3254 2.12558,-0.6508 3.18837,-0.97619 0.98405,-0.30129 1.92219,-0.69778 2.90607,-0.99902 0.36014,-0.11027 0.62201,-0.2997 0.97627,-0.40817 0.0122,-0.004 0.38505,0.0587 0.3662,-0.003 -0.0818,-0.26719 -0.0884,0.20832 -0.10662,0.25122 -0.0126,0.0297 -0.0714,-0.004 -0.0839,0.0257 -0.0281,0.0662 -0.007,0.15293 -0.0227,0.22552 -0.0826,0.3813 -0.24744,0.75504 -0.39589,1.1048 -0.27666,0.65186 -0.64469,1.39332 -0.8224,2.10968 -0.0356,0.14347 -0.0303,0.30071 -0.0454,0.45106 -0.0685,0.27597 -0.12357,0.55814 -0.20536,0.8279 -0.0403,0.13302 -0.13863,0.23611 -0.15994,0.37683 -0.0207,0.13674 0.0524,0.28674 0.0385,0.42536 -0.0339,0.3362 -0.19693,0.62567 -0.25868,0.95351 -0.0614,0.32573 -0.0549,0.9485 -0.083,1.22757 -0.098,0.97311 -0.0755,-0.36146 -0.12146,0.8022 -0.0115,0.29083 0.0126,0.5871 -0.007,0.87643 -0.008,0.12211 -0.0701,0.22861 -0.076,0.35115 -0.21038,0.5113 0.039,1.09235 0.0394,1.62726 2.5e-4,0.3371 -0.0909,0.66333 -0.0603,1.00204 0.0727,0.80349 0.11647,-0.10249 -0.0227,0.22553 -0.0251,0.0591 0.11712,0.18272 0.0612,0.19984 -0.0396,0.0121 -0.0736,-0.0581 -0.11449,-0.0742 -0.99395,-0.39 -1.5213,-1.43053 -2.25238,-2.26114 -0.16037,-0.1822 -0.35404,-0.32043 -0.51918,-0.49678 -0.72462,-0.77378 -0.13821,-0.27352 -0.83995,-0.94499 -0.43059,-0.412 -0.89446,-0.75949 -1.35125,-1.1163 -0.30304,-0.2367 -0.54534,-0.55852 -0.80936,-0.84507 -0.62395,-0.6772 -1.36857,-1.30283 -2.04611,-1.88715 -0.23442,-0.20217 -0.85722,-0.57947 -1.11438,-0.64239 -0.1533,-0.0375 -0.32739,-0.0339 -0.48071,-0.0714 -0.0836,-0.0204 -0.14534,-0.12799 -0.229,-0.14845 -0.0296,-0.007 -0.0569,0.0433 -0.0839,0.0257 -0.23689,-0.15359 0.26792,-0.0726 -0.14509,-0.17416 -0.0296,-0.007 -0.0608,0.0498 -0.0839,0.0257 -0.12458,-0.13007 -0.21384,-0.2988 -0.32077,-0.44822 z"
       id="path13820" />
    <path
       style="opacity:0.5;fill:#00ff00;stroke-width:0.095909"
       d="m 20.866709,169.56394 c 0.55201,0.73286 1.507174,0.94486 2.314638,1.25827 1.348518,0.52347 1.498763,0.62284 2.643158,1.18736 0.996806,0.49171 1.993615,0.98343 2.990415,1.47514 0.92296,0.45528 1.87775,0.80978 2.80055,1.26499 0.33777,0.16661 0.65829,0.20823 0.99056,0.37214 0.0114,0.006 0.24008,0.30671 0.26856,0.24896 0.12362,-0.25059 -0.20718,0.091 -0.24985,0.1098 -0.0295,0.013 -0.0492,-0.0518 -0.0787,-0.0388 -0.0658,0.029 -0.10994,0.10654 -0.17115,0.14862 -0.3215,0.22098 -0.69777,0.38003 -1.04563,0.53289 -0.6483,0.2849 -1.42454,0.57238 -2.04502,0.97208 -0.12427,0.08 -0.22821,0.19815 -0.34232,0.29724 -0.23902,0.15396 -0.4726,0.3216 -0.71708,0.46191 -0.12058,0.0692 -0.2628,0.0769 -0.37478,0.1647 -0.10882,0.0854 -0.15841,0.24469 -0.26361,0.33604 -0.25514,0.22154 -0.572311,0.3205 -0.842013,0.51683 -0.267984,0.19507 -0.69022,0.65289 -0.902002,0.83679 -0.738486,0.64123 0.192819,-0.31494 -0.638387,0.50073 -0.207736,0.20386 -0.393321,0.43605 -0.605921,0.63328 -0.08972,0.0832 -0.207759,0.11837 -0.296081,0.20351 -0.503687,0.22801 -0.720502,0.82197 -1.086922,1.21166 -0.230928,0.2456 -0.520954,0.42062 -0.730851,0.68819 -0.497938,0.63476 0.155056,0.005 -0.171152,0.1486 -0.05886,0.0258 -0.04,0.21332 -0.09246,0.18744 -0.03709,-0.0183 -0.01372,-0.0927 -0.03248,-0.13251 -0.456244,-0.96533 -0.126813,-2.08439 -0.08962,-3.19029 0.0082,-0.24259 -0.03807,-0.47599 -0.0374,-0.71758 0.003,-1.06011 0.08691,-0.29388 0.03636,-1.26381 -0.03102,-0.59515 -0.130489,-1.16614 -0.21843,-1.73905 -0.05834,-0.38008 -0.01411,-0.78048 -0.0099,-1.17009 0.01002,-0.92075 -0.103165,-1.88671 -0.195836,-2.7766 -0.03207,-0.30789 -0.226806,-1.00955 -0.370886,-1.23165 -0.08588,-0.13246 -0.21512,-0.24911 -0.301016,-0.38154 -0.04685,-0.0723 -0.01806,-0.19282 -0.06493,-0.26507 -0.01656,-0.0256 -0.07108,-0.008 -0.0787,-0.0388 -0.06717,-0.27422 0.244833,0.13081 0.01376,-0.22626 -0.01656,-0.0256 -0.07843,-0.005 -0.0787,-0.0388 -0.0015,-0.1801 0.04917,-0.36414 0.07376,-0.54621 z"
       id="path13822" />
    <path
       style="opacity:0.5;fill:#aa0000;stroke-width:0.095909"
       d="m 30.98912,174.5181 c 0.64911,0.64841 1.62455,0.72469 2.46792,0.92205 1.40849,0.32965 1.57116,0.40702 2.78328,0.80588 1.05579,0.34742 2.11159,0.69483 3.16739,1.04225 0.97757,0.32168 1.97257,0.53911 2.94998,0.86073 0.35777,0.11772 0.68095,0.11409 1.03288,0.22989 0.0121,0.004 0.28063,0.27011 0.30076,0.20895 0.0873,-0.26543 -0.19241,0.11915 -0.23203,0.14367 -0.0274,0.017 -0.056,-0.0444 -0.0833,-0.0274 -0.0612,0.0379 -0.094,0.12088 -0.14868,0.1711 -0.28742,0.26379 -0.63773,0.47393 -0.96079,0.67395 -0.60206,0.37279 -1.33045,0.76606 -1.88891,1.24863 -0.11184,0.0966 -0.19824,0.22814 -0.29736,0.34221 -0.21513,0.1859 -0.42296,0.38458 -0.6454,0.5577 -0.10971,0.0854 -0.24946,0.11287 -0.34805,0.21551 -0.0958,0.0998 -0.12262,0.26447 -0.21401,0.36963 -0.22163,0.25504 -0.52183,0.3974 -0.76141,0.62954 -0.23806,0.23064 -0.59209,0.74304 -0.77606,0.95475 -0.64151,0.73825 0.14686,-0.3388 -0.56205,0.58513 -0.17717,0.23091 -0.32845,0.48679 -0.51136,0.71182 -0.0772,0.095 -0.18915,0.14628 -0.2647,0.24294 -0.46683,0.29623 -0.59841,0.91468 -0.90671,1.35182 -0.19429,0.27549 -0.45698,0.48935 -0.62738,0.78366 -0.40423,0.69818 0.15427,-0.0165 -0.14868,0.1711 -0.0547,0.0338 -0.01,0.2168 -0.0653,0.19852 -0.0393,-0.0129 -0.0266,-0.0899 -0.0507,-0.12667 -0.58681,-0.892 -0.41719,-2.04613 -0.53509,-3.14637 -0.0259,-0.24133 -0.10429,-0.46596 -0.13743,-0.70528 -0.14539,-1.0501 0.0449,-0.30315 -0.14081,-1.25647 -0.11398,-0.58496 -0.29237,-1.1364 -0.4596,-1.69139 -0.11093,-0.36817 -0.12316,-0.77082 -0.17348,-1.1572 -0.1189,-0.91311 -0.36612,-1.85373 -0.58238,-2.7219 -0.0748,-0.30038 -0.36582,-0.96788 -0.53956,-1.16765 -0.10356,-0.11914 -0.24785,-0.21656 -0.35143,-0.33566 -0.0565,-0.065 -0.0449,-0.1884 -0.10138,-0.25338 -0.02,-0.023 -0.0714,0.002 -0.0834,-0.0274 -0.10488,-0.26214 0.26072,0.0953 -0.018,-0.22596 -0.02,-0.023 -0.0784,0.006 -0.0833,-0.0274 -0.0267,-0.17813 -0.002,-0.36743 -0.003,-0.55116 z"
       id="path13824" />
    <path
       style="opacity:0.5;fill:#ffff00;stroke-width:0.095909"
       d="m 42.21302,178.42723 c 0.9082,0.13029 1.7349,-0.39302 2.5284,-0.74028 1.32524,-0.57987 1.50183,-0.61539 2.7113,-1.02222 1.05349,-0.35436 2.10697,-0.70873 3.16046,-1.06309 0.97543,-0.32811 1.90236,-0.75013 2.87763,-1.07818 0.35698,-0.12007 0.61357,-0.31661 0.96473,-0.43473 0.0121,-0.004 0.38651,0.0481 0.36599,-0.0129 -0.0891,-0.26485 -0.0827,0.21066 -0.0997,0.25403 -0.0117,0.03 -0.0714,-0.002 -0.0832,0.028 -0.0263,0.067 -0.003,0.15307 -0.0165,0.22607 -0.0721,0.3834 -0.22669,0.76151 -0.36551,1.11521 -0.25872,0.65917 -0.60631,1.41044 -0.76434,2.1314 -0.0316,0.14439 -0.0221,0.30142 -0.0331,0.45213 -0.0609,0.27774 -0.10825,0.56132 -0.18263,0.83322 -0.0367,0.13408 -0.13212,0.23981 -0.14956,0.38106 -0.017,0.13726 0.0603,0.28521 0.0501,0.42416 -0.0247,0.337 -0.17973,0.63082 -0.23249,0.96022 -0.0524,0.32729 -0.0289,0.94965 -0.0494,1.22939 -0.0713,0.97543 -0.0854,-0.35926 -0.0995,0.80523 -0.004,0.29103 0.0286,0.58652 0.017,0.87629 -0.005,0.12228 -0.0638,0.23042 -0.0664,0.35308 -0.19631,0.51687 0.0688,1.09088 0.0839,1.62558 0.01,0.33698 -0.0727,0.66558 -0.0328,1.00332 0.0946,0.8012 0.11362,-0.10564 -0.0165,0.22607 -0.0235,0.0598 0.12208,0.17944 0.0666,0.19809 -0.0392,0.0132 -0.0751,-0.0561 -0.11648,-0.071 -1.00425,-0.36266 -1.55988,-1.38835 -2.31343,-2.19865 -0.16529,-0.17774 -0.36267,-0.31061 -0.53258,-0.48237 -0.74552,-0.75367 -0.14563,-0.26965 -0.8655,-0.92165 -0.4417,-0.40006 -0.91491,-0.73473 -1.3813,-1.07891 -0.3094,-0.22832 -0.56042,-0.54338 -0.83218,-0.8226 -0.64225,-0.65986 -1.40371,-1.26487 -2.097,-1.83044 -0.23986,-0.19567 -0.87275,-0.55579 -1.13154,-0.61165 -0.15427,-0.0333 -0.3282,-0.0249 -0.48249,-0.0582 -0.0842,-0.0181 -0.14879,-0.12397 -0.23296,-0.14213 -0.0298,-0.006 -0.0557,0.0448 -0.0832,0.028 -0.24102,-0.14706 0.26583,-0.0799 -0.14981,-0.17012 -0.0298,-0.006 -0.0594,0.0514 -0.0832,0.028 -0.12809,-0.12662 -0.22195,-0.29285 -0.33292,-0.43928 z"
       id="path13826" />
    <path
       style="opacity:0.5;fill:#800080;stroke-width:0.095909"
       d="m 54.50142,174.13208 c 0.90429,0.1551 1.745,-0.34539 2.54771,-0.67079 1.34061,-0.5434 1.51811,-0.57405 2.73826,-0.94763 1.06279,-0.3254 2.12558,-0.6508 3.18837,-0.97619 0.98405,-0.30129 1.92219,-0.69778 2.90607,-0.99902 0.36014,-0.11027 0.62201,-0.2997 0.97627,-0.40817 0.0122,-0.004 0.38505,0.0587 0.3662,-0.003 -0.0818,-0.26719 -0.0884,0.20832 -0.10662,0.25122 -0.0126,0.0297 -0.0714,-0.004 -0.0839,0.0257 -0.0281,0.0662 -0.007,0.15293 -0.0227,0.22552 -0.0826,0.3813 -0.24744,0.75504 -0.39589,1.1048 -0.27666,0.65186 -0.64469,1.39332 -0.8224,2.10968 -0.0356,0.14347 -0.0303,0.30071 -0.0454,0.45106 -0.0685,0.27597 -0.12357,0.55814 -0.20536,0.8279 -0.0403,0.13302 -0.13863,0.23611 -0.15994,0.37683 -0.0207,0.13674 0.0524,0.28674 0.0385,0.42536 -0.0339,0.3362 -0.19693,0.62567 -0.25868,0.95351 -0.0614,0.32573 -0.0549,0.9485 -0.083,1.22757 -0.098,0.97311 -0.0755,-0.36146 -0.12146,0.8022 -0.0115,0.29083 0.0126,0.5871 -0.007,0.87643 -0.008,0.12211 -0.0701,0.22861 -0.076,0.35115 -0.21038,0.5113 0.039,1.09235 0.0394,1.62726 2.5e-4,0.3371 -0.0909,0.66333 -0.0603,1.00204 0.0727,0.80349 0.11647,-0.10249 -0.0227,0.22553 -0.0251,0.0591 0.11712,0.18272 0.0612,0.19984 -0.0396,0.0121 -0.0736,-0.0581 -0.11449,-0.0742 -0.99395,-0.39 -1.5213,-1.43053 -2.25238,-2.26114 -0.16037,-0.1822 -0.35404,-0.32043 -0.51918,-0.49678 -0.72462,-0.77378 -0.13821,-0.27352 -0.83995,-0.94499 -0.43059,-0.412 -0.89446,-0.75949 -1.35125,-1.1163 -0.30304,-0.2367 -0.54534,-0.55852 -0.80936,-0.84507 -0.62395,-0.6772 -1.36857,-1.30283 -2.04611,-1.88715 -0.23442,-0.20217 -0.85722,-0.57947 -1.11438,-0.64239 -0.1533,-0.0375 -0.32739,-0.0339 -0.48071,-0.0714 -0.0836,-0.0204 -0.14534,-0.12799 -0.229,-0.14845 -0.0296,-0.007 -0.0569,0.0433 -0.0839,0.0257 -0.23689,-0.15359 0.26792,-0.0726 -0.14509,-0.17416 -0.0296,-0.007 -0.0608,0.0498 -0.0839,0.0257 -0.12458,-0.13007 -0.21384,-0.2988 -0.32077,-0.44822 z"
       id="path13828" />
    <path
       id="ellipse13830"
       style="opacity:0.5;fill:url(#radialGradient14600);fill-opacity:1;fill-rule:evenodd;stroke-width:0.524577"
       d="m 97.328943,156.78733 c -1.162051,0.009 -2.533717,0.20452 -3.316594,0.36639 -0.485399,0.0997 -0.92039,0.3991 -1.408699,0.48265 -0.23154,0.0398 -0.47645,-0.0585 -0.70435,0 -0.27387,0.0703 -0.452587,0.35301 -0.704866,0.48266 -0.67058,0.34461 -1.47664,0.60196 -2.11305,0.96532 -0.342099,0.19534 -0.626388,0.48254 -0.939477,0.72398 0.948489,0.48379 6.120382,-0.47493 7.044531,0 1.587438,0.81578 2.728856,1.2655 3.522266,2.89647 0.312949,0.64327 0.704349,0.52229 0.704349,1.20664 l 2.582787,-5.55108 c 0,-0.67487 -2.034067,-0.68326 -2.582787,-0.96532 -0.715649,-0.36804 0.429559,-0.19125 -0.704349,-0.48265 -0.366622,-0.0942 -0.851556,-0.12901 -1.379761,-0.12506 z m -8.928654,2.72283 c -0.03113,10e-4 -0.08311,0.0459 -0.144694,0.11989 0.07151,-0.0257 0.176733,-0.0632 0.176733,-0.0646 0,-0.0392 -0.01172,-0.0562 -0.03204,-0.0553 z m -0.144694,0.11989 c -0.409357,0.14737 -1.72818,0.60452 -1.804541,0.64079 -1.554689,0.73788 -3.13877,1.54264 -4.457609,2.58589 -0.45728,0.3617 -1.064808,0.54046 -1.485698,0.93999 -0.210439,0.19975 -0.26632,0.52473 -0.49506,0.70538 -0.2836,0.22435 -0.670067,0.29601 -0.990637,0.46974 -1.965138,1.06581 0.562514,-0.2134 -1.486214,1.17564 -0.30039,0.20364 -0.689731,0.26604 -0.990121,0.46974 -1.420118,0.96269 -0.152168,0.37988 -1.238167,1.41077 -0.21044,0.19986 -0.532587,0.26979 -0.743107,0.46974 -0.21021,0.19975 -0.309727,0.48498 -0.495577,0.70538 -1.114539,1.32242 -2.256276,2.41228 -2.971395,3.99614 -0.13408,0.29696 -0.11348,0.64303 -0.24753,0.93999 -0.23448,0.51932 -0.756157,0.8909 -0.990637,1.41025 -0.94043,2.0829 -0.640125,4.59699 -0.324528,7.01663 a 11.740739,6.6369414 0 0 0 -0.412895,1.73891 11.740739,6.6369414 0 0 0 11.740885,6.6368 11.740739,6.6369414 0 0 0 11.740886,-6.6368 11.740739,6.6369414 0 0 0 -1.087272,-2.78846 l 0.384472,-0.0904 c -0.08297,0 -0.189747,0.0553 -0.248046,0 -0.2558,-0.24227 0.0078,-1.40337 -0.247531,-1.64538 -0.05858,-0.0553 -0.189746,0.0553 -0.248046,0 -0.17688,-0.1678 0.0835,-0.93685 0,-1.17512 -0.19821,-0.56438 -0.495061,-1.07446 -0.495061,-1.64538 0,-0.75652 0.05797,0.40116 -0.248047,-0.47026 -0.0524,-0.14867 0,-0.31381 0,-0.47025 0,-0.0781 0.0252,-0.16083 0,-0.23513 -0.141559,-0.40327 -0.11607,-0.8002 -0.24753,-1.17512 -0.03701,-0.10516 -0.211047,-0.12996 -0.248047,-0.23513 -0.104549,-0.29733 0.10428,-0.64269 0,-0.94 -0.037,-0.10515 -0.21053,-0.12996 -0.24753,-0.23512 -0.182499,-0.51975 -0.108447,-1.11589 -0.248047,-1.64538 -0.107919,-0.40987 -0.38714,-0.76578 -0.49506,-1.17564 -0.1763,-0.66833 -0.01875,-1.46238 -0.248047,-2.11512 -0.321889,-0.91673 -0.743107,-2.09091 -0.743107,-3.05614 0,-0.8841 -0.0471,-1.1203 -0.24753,-1.88051 -0.18249,-0.69325 0,-1.63175 0,-2.35024 0,-0.43793 0.346671,-1.08207 0.566374,-1.34617 z" />
    <path
       id="path13840"
       style="opacity:0.5;fill:url(#radialGradient13850);fill-opacity:1;fill-rule:evenodd;stroke-width:0.14308"
       d="m 36.258998,85.364962 c -2.2248,0.53338 -4.50322,2.25583 -4.93548,5.5088 -0.5882,4.42639 2.01234,12.124828 4.41821,14.034398 a 1.5401594,1.4983381 0 0 0 -0.54878,1.55899 1.5401594,1.4983381 0 0 0 1.00526,1.04565 l 0.68303,9.33012 c 0.34024,-3.01627 0.41439,-5.74882 -0.4973,-9.28133 a 1.5401594,1.4983381 0 0 0 0.60549,-0.002 c 0.39159,0.72115 0.99605,1.27359 1.6353,1.79806 l -1.40562,-1.86165 a 1.5401594,1.4983381 0 0 0 0.95605,-1.77921 1.5401594,1.4983381 0 0 0 -0.32357,-0.60197 c 2.83848,-1.21022 7.01348,-6.830118 7.55404,-10.897988 0.64337,-4.84162 -3.58749,-8.00925 -6.14656,-8.8225 -0.83969,-0.26685 -1.91354,-0.28994 -3.00007,-0.0295 z m 2.36572,23.992778 7.87057,10.42318 c -0.43813,-1.6482 -1.05246,-3.71856 -2.10392,-5.04215 -0.99113,-1.24764 -2.40992,-2.0724 -3.52306,-3.1994 -0.28026,-0.28375 -0.46894,-0.64597 -0.75479,-0.9244 -0.45982,-0.44788 -0.98506,-0.84394 -1.4888,-1.25723 z m -1.74348,7.48518 c -0.11182,0.99127 -0.25214,2.01274 -0.39587,3.10393 -0.0882,0.66982 -0.0568,1.32998 0.49358,1.85679 0.0293,0.028 0.0839,-0.0503 0.11929,-0.03 0.20018,0.11472 -0.16796,0.16607 0.15014,0.086 z" />
    <path
       id="path13842"
       style="opacity:0.5;fill:url(#radialGradient13848);fill-opacity:1;fill-rule:evenodd;stroke-width:0.123334"
       d="m 46.922658,93.321292 c -1.85158,-0.52073 -4.24051,-0.14244 -5.91953,2.1971 -2.28469,3.18348 -3.60649,10.241578 -2.64576,12.731608 a 1.2900972,1.3291142 0 0 0 -1.05467,0.97779 1.2900972,1.3291142 0 0 0 0.29764,1.23244 l -3.40858,7.51757 c 1.51253,-2.19473 2.71147,-4.28132 3.52406,-7.40177 a 1.2900972,1.3291142 0 0 0 0.44391,0.25273 c -0.0155,0.7233 0.19542,1.40522 0.44352,2.08008 l -0.2488,-2.03294 a 1.2900972,1.3291142 0 0 0 1.44498,-0.97747 1.2900972,1.3291142 0 0 0 0.0154,-0.60237 c 2.58422,0.25383 7.99377,-2.34867 10.09341,-5.2743 2.499,-3.48211 0.72972,-7.713348 -0.80238,-9.418048 -0.50272,-0.55936 -1.27891,-1.02811 -2.18317,-1.28242 z m -8.31941,19.587548 1.39351,11.38241 c 0.36981,-1.46131 0.78752,-3.32375 0.5725,-4.79099 -0.20269,-1.38304 -0.89549,-2.61792 -1.238,-3.95869 -0.0862,-0.33758 -0.0726,-0.69751 -0.16514,-1.03331 -0.14888,-0.54017 -0.36735,-1.06763 -0.56287,-1.59942 z m -4.41149,5.06896 c -0.49707,0.72128 -1.02766,1.45401 -1.58995,2.23933 -0.34516,0.48207 -0.59867,1.0069 -0.41661,1.64624 0.01,0.034 0.0825,-0.004 0.0999,0.0268 0.0984,0.17296 -0.19248,0.0582 0.0738,0.12971 z" />
    <path
       id="path13844"
       style="opacity:0.5;fill:url(#radialGradient13846);fill-opacity:1;fill-rule:evenodd;stroke-width:0.123334"
       d="m 24.897538,97.368602 c -0.93044,1.72949 -1.14072,4.210128 0.66679,6.445748 2.45951,3.04208 8.80098,6.04004 11.37687,5.66949 a 1.2900972,1.3291142 0 0 0 0.67167,1.28759 1.2900972,1.3291142 0 0 0 1.23272,-0.005 l 6.27945,5.19548 c -1.71048,-2.03463 -3.39339,-3.72975 -6.14286,-5.28357 a 1.2900972,1.3291142 0 0 0 0.34366,-0.38429 c 0.67833,0.18719 1.37138,0.13793 2.06659,0.0498 l -1.97592,-0.23347 a 1.2900972,1.3291142 0 0 0 -0.57874,-1.67814 1.2900972,1.3291142 0 0 0 -0.56433,-0.15833 c 0.85265,-2.52608 -0.31743,-8.557648 -2.57773,-11.353308 -2.69023,-3.32744 -7.09983,-2.56093 -9.07083,-1.43217 -0.64673,0.37037 -1.27294,1.03595 -1.72734,1.88058 z m 16.49489,12.974848 11.06334,1.30676 c -1.29012,-0.71692 -2.9471,-1.57698 -4.38161,-1.71001 -1.35219,-0.12539 -2.68099,0.27491 -4.02652,0.29949 -0.33877,0.006 -0.67491,-0.0929 -1.01351,-0.08 -0.54466,0.0208 -1.09386,0.11427 -1.6417,0.18374 z m 3.73261,5.61808 c 0.56213,0.66865 1.12711,1.37358 1.73415,2.12269 0.37263,0.45984 0.80733,0.83812 1.45338,0.80765 0.0344,-0.002 0.0162,-0.0834 0.049,-0.0936 0.18644,-0.0575 0.009,0.20646 0.13984,-0.0431 z" />
    <path
       id="path17845"
       style="opacity:0.5;fill:url(#radialGradient17847);fill-opacity:1;fill-rule:evenodd;stroke-width:0.524577"
       d="m 53.188642,125.73949 c -1.162051,0.009 -2.533717,0.20452 -3.316594,0.36639 -0.485399,0.0997 -0.92039,0.3991 -1.408699,0.48265 -0.23154,0.0398 -0.47645,-0.0585 -0.70435,0 -0.27387,0.0703 -0.452587,0.35301 -0.704866,0.48266 -0.67058,0.34461 -1.47664,0.60196 -2.11305,0.96532 -0.342099,0.19534 -0.626388,0.48254 -0.939477,0.72398 0.948489,0.48379 6.120382,-0.47493 7.044531,0 1.587438,0.81578 2.728856,1.2655 3.522266,2.89647 0.312949,0.64327 0.704349,0.52229 0.704349,1.20664 l 2.582787,-5.55108 c 0,-0.67487 -2.034067,-0.68326 -2.582787,-0.96532 -0.715649,-0.36804 0.429559,-0.19125 -0.704349,-0.48265 -0.366622,-0.0942 -0.851556,-0.12901 -1.379761,-0.12506 z m -8.928654,2.72283 c -0.03113,0.001 -0.08311,0.0459 -0.144694,0.11989 0.07151,-0.0257 0.176733,-0.0632 0.176733,-0.0646 0,-0.0392 -0.01172,-0.0562 -0.03204,-0.0553 z m -0.144694,0.11989 c -0.409357,0.14737 -1.72818,0.60452 -1.804541,0.64079 -1.554689,0.73788 -3.13877,1.54264 -4.457609,2.58589 -0.45728,0.3617 -1.064808,0.54046 -1.485698,0.93999 -0.210439,0.19975 -0.26632,0.52473 -0.49506,0.70538 -0.2836,0.22435 -0.670067,0.29601 -0.990637,0.46974 -1.965138,1.06581 0.562514,-0.2134 -1.486214,1.17564 -0.30039,0.20364 -0.689731,0.26604 -0.990121,0.46974 -1.420118,0.96269 -0.152168,0.37988 -1.238167,1.41077 -0.21044,0.19986 -0.532587,0.26979 -0.743107,0.46974 -0.21021,0.19975 -0.309727,0.48498 -0.495577,0.70538 -1.114539,1.32242 -2.256276,2.41228 -2.971395,3.99614 -0.13408,0.29696 -0.11348,0.64303 -0.24753,0.93999 -0.23448,0.51932 -0.756157,0.8909 -0.990637,1.41025 -0.94043,2.0829 -0.640125,4.59699 -0.324528,7.01663 a 11.740739,6.6369414 0 0 0 -0.412895,1.73891 11.740739,6.6369414 0 0 0 11.740885,6.6368 11.740739,6.6369414 0 0 0 11.740886,-6.6368 11.740739,6.6369414 0 0 0 -1.087272,-2.78846 l 0.384472,-0.0904 c -0.08297,0 -0.189747,0.0553 -0.248046,0 -0.2558,-0.24227 0.0078,-1.40337 -0.247531,-1.64538 -0.05858,-0.0553 -0.189746,0.0553 -0.248046,0 -0.17688,-0.1678 0.0835,-0.93685 0,-1.17512 -0.19821,-0.56438 -0.495061,-1.07446 -0.495061,-1.64538 0,-0.75652 0.05797,0.40116 -0.248047,-0.47026 -0.0524,-0.14867 0,-0.31381 0,-0.47025 0,-0.0781 0.0252,-0.16083 0,-0.23513 -0.141559,-0.40327 -0.11607,-0.8002 -0.24753,-1.17512 -0.03701,-0.10516 -0.211047,-0.12996 -0.248047,-0.23513 -0.104549,-0.29733 0.10428,-0.64269 0,-0.94 -0.037,-0.10515 -0.21053,-0.12996 -0.24753,-0.23512 -0.182499,-0.51975 -0.108447,-1.11589 -0.248047,-1.64538 -0.107919,-0.40987 -0.38714,-0.76578 -0.49506,-1.17564 -0.1763,-0.66833 -0.01875,-1.46238 -0.248047,-2.11512 -0.321889,-0.91673 -0.743107,-2.09091 -0.743107,-3.05614 0,-0.8841 -0.0471,-1.1203 -0.24753,-1.88051 -0.18249,-0.69325 0,-1.63175 0,-2.35024 0,-0.43793 0.346671,-1.08207 0.566374,-1.34617 z" />
    <path
       id="path17849"
       style="opacity:0.5;fill:url(#radialGradient17851);fill-opacity:1;fill-rule:evenodd;stroke-width:0.524577"
       d="m 134.73598,83.843611 c -1.16205,0.009 -2.53372,0.20452 -3.3166,0.36639 -0.48539,0.0997 -0.92039,0.3991 -1.40869,0.48265 -0.23154,0.0398 -0.47645,-0.0585 -0.70435,0 -0.27387,0.0703 -0.45259,0.35301 -0.70487,0.48266 -0.67058,0.34461 -1.47664,0.60196 -2.11305,0.96532 -0.3421,0.19534 -0.62639,0.48254 -0.93948,0.72398 0.94849,0.48379 6.12038,-0.47493 7.04453,0 1.58744,0.81578 2.72886,1.2655 3.52227,2.89647 0.31295,0.64327 0.70435,0.52229 0.70435,1.20664 l 2.58279,-5.55108 c 0,-0.67487 -2.03407,-0.68326 -2.58279,-0.96532 -0.71565,-0.36804 0.42956,-0.19125 -0.70435,-0.48265 -0.36662,-0.0942 -0.85156,-0.12901 -1.37976,-0.12506 z m -8.92866,2.72283 c -0.0311,0.001 -0.0831,0.0459 -0.14469,0.11989 0.0715,-0.0257 0.17673,-0.0632 0.17673,-0.0646 0,-0.0392 -0.0117,-0.0562 -0.032,-0.0553 z m -0.14469,0.11989 c -0.40936,0.14737 -1.72818,0.60452 -1.80454,0.64079 -1.55469,0.73788 -3.13877,1.54264 -4.45761,2.58589 -0.45728,0.3617 -1.06481,0.54046 -1.4857,0.93999 -0.21044,0.19975 -0.26632,0.52473 -0.49506,0.70538 -0.2836,0.22435 -0.67006,0.29601 -0.99063,0.46974 -1.96514,1.06581 0.56251,-0.2134 -1.48622,1.17564 -0.30039,0.20364 -0.68973,0.26604 -0.99012,0.46974 -1.42012,0.96269 -0.15217,0.37988 -1.23817,1.41077 -0.21044,0.19986 -0.53258,0.26979 -0.7431,0.46974 -0.21021,0.19975 -0.30973,0.48498 -0.49558,0.70538 -1.11454,1.32242 -2.25628,2.41228 -2.9714,3.996139 -0.13408,0.29696 -0.11348,0.64303 -0.24753,0.93999 -0.23448,0.51932 -0.75615,0.8909 -0.99063,1.41025 -0.94043,2.0829 -0.64013,4.59699 -0.32453,7.01663 a 11.740739,6.6369414 0 0 0 -0.4129,1.73891 11.740739,6.6369414 0 0 0 11.74089,6.6368 11.740739,6.6369414 0 0 0 11.74089,-6.6368 11.740739,6.6369414 0 0 0 -1.08728,-2.78846 l 0.38448,-0.0904 c -0.083,0 -0.18975,0.0553 -0.24805,0 -0.2558,-0.24227 0.008,-1.40337 -0.24753,-1.64538 -0.0586,-0.0553 -0.18975,0.0553 -0.24805,0 -0.17688,-0.1678 0.0835,-0.93685 0,-1.17512 -0.19821,-0.56438 -0.49506,-1.07446 -0.49506,-1.64538 0,-0.75652 0.058,0.40116 -0.24805,-0.47026 -0.0524,-0.14867 0,-0.31381 0,-0.47025 0,-0.0781 0.0252,-0.16083 0,-0.23513 -0.14155,-0.40327 -0.11607,-0.8002 -0.24753,-1.17512 -0.037,-0.10516 -0.21104,-0.12996 -0.24804,-0.23513 -0.10455,-0.29733 0.10428,-0.64269 0,-0.94 -0.037,-0.10515 -0.21053,-0.12996 -0.24753,-0.23512 -0.1825,-0.519749 -0.10845,-1.115889 -0.24805,-1.645379 -0.10792,-0.40987 -0.38714,-0.76578 -0.49506,-1.17564 -0.1763,-0.66833 -0.0187,-1.46238 -0.24805,-2.11512 -0.32189,-0.91673 -0.7431,-2.09091 -0.7431,-3.05614 0,-0.8841 -0.0471,-1.1203 -0.24753,-1.88051 -0.18249,-0.69325 0,-1.63175 0,-2.35024 0,-0.43793 0.34667,-1.08207 0.56637,-1.34617 z" />
  </g>
</svg>
