<?xml version="1.0" encoding="UTF-8" standalone="no"?>
<!-- Created with Inkscape (http://www.inkscape.org/) -->

<svg
   width="76.644615mm"
   height="72.791748mm"
   viewBox="0 0 76.644615 72.791748"
   version="1.1"
   id="svg45734"
   inkscape:version="1.2.2 (b0a8486, 2022-12-01)"
   sodipodi:docname="objects.svg"
   xmlns:inkscape="http://www.inkscape.org/namespaces/inkscape"
   xmlns:sodipodi="http://sodipodi.sourceforge.net/DTD/sodipodi-0.dtd"
   xmlns:xlink="http://www.w3.org/1999/xlink"
   xmlns="http://www.w3.org/2000/svg"
   xmlns:svg="http://www.w3.org/2000/svg">
  <sodipodi:namedview
     id="namedview45736"
     pagecolor="#ffffff"
     bordercolor="#000000"
     borderopacity="0.25"
     inkscape:showpageshadow="2"
     inkscape:pageopacity="0.0"
     inkscape:pagecheckerboard="0"
     inkscape:deskcolor="#d1d1d1"
     inkscape:document-units="mm"
     showgrid="false"
     inkscape:zoom="0.97941561"
     inkscape:cx="243.51256"
     inkscape:cy="494.17224"
     inkscape:window-width="1309"
     inkscape:window-height="776"
     inkscape:window-x="0"
     inkscape:window-y="25"
     inkscape:window-maximized="0"
     inkscape:current-layer="layer1" />
  <defs
     id="defs45731">
    <linearGradient
       inkscape:collect="always"
       id="linearGradient57169">
      <stop
         style="stop-color:#fff6d5;stop-opacity:1"
         offset="0"
         id="stop57165" />
      <stop
         style="stop-color:#ffe680;stop-opacity:1"
         offset="1"
         id="stop57167" />
    </linearGradient>
    <radialGradient
       inkscape:collect="always"
       xlink:href="#linearGradient57169"
       id="radialGradient57171"
       cx="37.853149"
       cy="160.96832"
       fx="37.853149"
       fy="160.96832"
       r="15.781736"
       gradientTransform="matrix(0.37818373,0,0,0.56280484,9.0881466,27.154907)"
       gradientUnits="userSpaceOnUse" />
    <radialGradient
       inkscape:collect="always"
       xlink:href="#linearGradient57169"
       id="radialGradient60076"
       gradientUnits="userSpaceOnUse"
       gradientTransform="matrix(0.37022975,0.08272769,-0.10708542,0.55096789,31.643607,25.710819)"
       cx="37.853149"
       cy="160.96832"
       fx="37.853149"
       fy="160.96832"
       r="15.781736" />
  </defs>
  <g
     inkscape:label="Layer 1"
     inkscape:groupmode="layer"
     id="layer1"
     style="fill:#000000;fill-opacity:1"
     transform="translate(-8.3744661,-66.455442)">
    <rect
       style="fill:#fff0cc;fill-opacity:1;stroke-width:0.136059"
       id="rect311"
       width="76.644615"
       height="72.791748"
       x="8.3744659"
       y="66.455444"
       inkscape:export-filename="menubackground.svg"
       inkscape:export-xdpi="96"
       inkscape:export-ydpi="96" />
    <path
       style="opacity:0.3;fill:#803300;fill-opacity:0.963731;stroke:#150053;stroke-width:0.113634;stroke-opacity:0"
       d="m 20.372004,74.201663 c 0.97228,-0.603847 2.104718,-0.799724 3.214631,-0.600638 1.266268,0.227133 2.538575,0.490756 3.750401,0.96102 2.006131,0.778504 4.393026,3.563347 5.679181,5.405738 0.299414,0.428901 0.624599,0.843272 0.857234,1.321404 0.617773,1.269703 1.133078,3.974515 0.750081,5.405742 -0.473551,1.769609 -2.048593,2.738617 -3.428939,3.48369 -2.003401,1.081382 -4.000816,1.79395 -6.214952,2.042168 -0.534296,0.0599 -1.071627,0.161546 -1.607315,0.120128 -2.43341,-0.18814 -5.146249,-2.696578 -6.536415,-4.8051 -1.135945,-1.722935 -1.742578,-3.759455 -1.821624,-5.886249 -0.02858,-0.768856 -0.05056,-1.780334 0.214309,-2.522675 0.610458,-1.710917 2.049847,-2.991931 3.21463,-4.204463 0.4878,-0.507797 1.145376,-1.049651 1.821624,-1.201274 0.175122,-0.03927 0.358559,0.02483 0.535772,0 0.421125,-0.05902 0.744981,-0.245973 1.071543,0.120126"
       id="path49063" />
    <path
       style="opacity:0.3;fill:#2b1100;fill-opacity:0.963731;stroke:#150053;stroke-width:0.119259;stroke-opacity:0"
       d="m 24.284758,81.325842 c -0.07371,0.230813 -0.275932,0.864032 -0.349644,1.09485 -0.227947,0.713775 -0.21341,1.75587 0.699288,1.946409 0.114285,0.02386 0.234683,-0.02004 0.349644,0 0.823106,0.143184 1.28203,0.355001 1.28203,-0.851554 0,-0.869193 -0.825879,-1.061288 -1.398577,-1.459805 -0.252463,-0.175677 -0.393194,-0.482596 -0.582741,-0.7299 z"
       id="path49132" />
    <path
       style="opacity:0.3;fill:#2b1100;fill-opacity:0.963731;stroke:#150053;stroke-width:0.119259;stroke-opacity:0"
       d="m 23.58547,86.435146 c -0.260238,0.286532 -0.429865,0.65407 -0.582741,0.973196 -0.0777,0.162205 0.0777,0.446058 0,0.608257 -0.262817,0.548637 -0.5046,1.568086 0.233097,1.824749 0.187438,0.06521 1.082818,0.103966 1.282028,0 0.150511,-0.07856 0.19111,-0.695896 0.116549,-0.851553 -0.118184,-0.246714 -0.327567,-0.756154 -0.466193,-0.973196 0.01163,-0.241 -0.171669,-0.05754 -0.233096,-0.121653 -0.02747,-0.0287 0.02747,-0.09298 0,-0.121649 -0.02747,-0.0287 -0.08908,0.0287 -0.116548,0 -0.02747,-0.0287 0.02747,-0.09298 0,-0.121648 -0.02747,-0.0287 -0.08908,0.0287 -0.116548,0 -0.02747,-0.0287 0.01738,-0.08539 0,-0.121653 -0.234373,-0.489271 -0.259077,-0.351009 -0.116548,-1.09485 z"
       id="path49136" />
    <path
       style="opacity:0.3;fill:#2b1100;fill-opacity:0.963731;stroke:#150053;stroke-width:0.119259;stroke-opacity:0"
       d="m 29.995614,83.150591 c -0.07371,0.230813 -0.275932,0.864032 -0.349643,1.09485 -0.227948,0.713776 -0.213411,1.755872 0.699287,1.946404 0.114286,0.02386 0.234683,-0.01998 0.349645,0 0.823105,0.143188 1.282028,0.355006 1.282028,-0.851553 0,-0.869187 -0.825878,-1.061289 -1.398576,-1.459801 -0.252463,-0.175677 -0.393194,-0.482596 -0.582741,-0.7299 z"
       id="path49142" />
    <path
       style="opacity:0.3;fill:#2b1100;fill-opacity:0.963731;stroke:#150053;stroke-width:0.119259;stroke-opacity:0"
       d="m 21.021412,76.824783 c -0.07371,0.230814 -0.275932,0.864037 -0.349644,1.094853 -0.227947,0.713774 -0.21341,1.75587 0.699288,1.946407 0.114285,0.02386 0.234682,-0.01998 0.349644,0 0.823106,0.143184 1.282029,0.355001 1.282029,-0.851553 0,-0.869192 -0.825878,-1.061291 -1.398577,-1.459806 -0.252462,-0.175678 -0.393193,-0.482594 -0.58274,-0.729901 z"
       id="path49144" />
    <path
       style="opacity:0.3;fill:#2b1100;fill-opacity:0.963731;stroke:#150053;stroke-width:0.119259;stroke-opacity:0"
       d="m 19.156643,82.54234 c -0.260238,0.286537 -0.429866,0.654069 -0.582741,0.973207 -0.0777,0.162199 0.0777,0.446046 0,0.608246 -0.262817,0.548648 -0.5046,1.568087 0.233097,1.824756 0.187438,0.06521 1.082818,0.10396 1.282028,0 0.15051,-0.07855 0.19111,-0.695902 0.116548,-0.851554 -0.118183,-0.246713 -0.327566,-0.756159 -0.466192,-0.973202 0.01163,-0.240995 -0.171669,-0.05753 -0.233096,-0.121649 -0.02747,-0.0287 0.02747,-0.09298 0,-0.121648 -0.02747,-0.0287 -0.08908,0.0287 -0.116548,0 -0.02747,-0.0287 0.02747,-0.09297 0,-0.121653 -0.02747,-0.0287 -0.08908,0.0287 -0.116549,0 -0.02747,-0.0287 0.01738,-0.08538 0,-0.121648 -0.234373,-0.489266 -0.259076,-0.351015 -0.116547,-1.094855 z"
       id="path49146" />
    <path
       style="opacity:0.3;fill:#2b1100;fill-opacity:0.963731;stroke:#150053;stroke-width:0.119259;stroke-opacity:0"
       d="m 27.897749,75.851583 c -0.260238,0.286535 -0.429866,0.65407 -0.582741,0.973203 -0.0777,0.162201 0.0777,0.446051 0,0.608252 -0.262817,0.548639 -0.5046,1.568086 0.233097,1.824749 0.187438,0.06521 1.082818,0.103966 1.282028,0 0.150511,-0.07855 0.19111,-0.695897 0.116549,-0.851554 -0.118184,-0.246711 -0.327567,-0.756156 -0.466193,-0.973195 0.01163,-0.240999 -0.171669,-0.05754 -0.233096,-0.121653 -0.02747,-0.02869 0.02747,-0.09298 0,-0.121649 -0.02747,-0.02869 -0.08908,0.02869 -0.116548,0 -0.02747,-0.02869 0.02747,-0.09298 0,-0.121649 -0.02747,-0.02869 -0.08908,0.02869 -0.116548,0 -0.02747,-0.02869 0.01738,-0.08539 0,-0.121653 -0.234374,-0.489265 -0.259077,-0.35101 -0.116548,-1.094851 z"
       id="path49148" />
    <rect
       style="font-variation-settings:normal;opacity:0.5;vector-effect:none;fill:#552200;fill-opacity:1;fill-rule:evenodd;stroke:#150053;stroke-width:0.107438;stroke-linecap:butt;stroke-linejoin:miter;stroke-miterlimit:4;stroke-dasharray:none;stroke-dashoffset:0;stroke-opacity:0;-inkscape-stroke:none;stop-color:#000000;stop-opacity:1"
       id="rect50741"
       width="20.263229"
       height="5.564992"
       x="53.744717"
       y="81.857063" />
    <rect
       style="font-variation-settings:normal;opacity:0.5;vector-effect:none;fill:#ffe6d5;fill-opacity:1;fill-rule:evenodd;stroke:#150053;stroke-width:0.0754845;stroke-linecap:butt;stroke-linejoin:miter;stroke-miterlimit:4;stroke-dasharray:none;stroke-dashoffset:0;stroke-opacity:0;-inkscape-stroke:none;stop-color:#000000;stop-opacity:1"
       id="rect51469"
       width="20.293863"
       height="1.4498245"
       x="53.729404"
       y="84.023834" />
    <rect
       style="font-variation-settings:normal;opacity:0.5;vector-effect:none;fill:#552200;fill-opacity:1;fill-rule:evenodd;stroke:#150053;stroke-width:0.107438;stroke-linecap:butt;stroke-linejoin:miter;stroke-miterlimit:4;stroke-dasharray:none;stroke-dashoffset:0;stroke-opacity:0;-inkscape-stroke:none;stop-color:#000000;stop-opacity:1"
       id="rect51471"
       width="20.263229"
       height="5.564992"
       x="53.668232"
       y="78.195114" />
    <rect
       style="font-variation-settings:normal;opacity:0.5;vector-effect:none;fill:#ffe6d5;fill-opacity:1;fill-rule:evenodd;stroke:#150053;stroke-width:0.0754845;stroke-linecap:butt;stroke-linejoin:miter;stroke-miterlimit:4;stroke-dasharray:none;stroke-dashoffset:0;stroke-opacity:0;-inkscape-stroke:none;stop-color:#000000;stop-opacity:1"
       id="rect51473"
       width="20.293863"
       height="1.4498245"
       x="53.65292"
       y="80.361877" />
    <ellipse
       style="opacity:0.5;fill:#aa0000;fill-opacity:1;stroke:#150053;stroke-width:0.138395;stroke-opacity:0"
       id="path53224"
       cx="63.579277"
       cy="76.448929"
       rx="1.7047687"
       ry="1.8550768" />
    <path
       id="rect53228"
       style="font-variation-settings:normal;opacity:0.5;vector-effect:none;fill:#aa4400;fill-opacity:1;fill-rule:evenodd;stroke:#150053;stroke-width:0.103786;stroke-linecap:butt;stroke-linejoin:miter;stroke-miterlimit:4;stroke-dasharray:none;stroke-dashoffset:0;stroke-opacity:0;-inkscape-stroke:none;stop-color:#000000;stop-opacity:1"
       d="m 23.328145,107.49684 a 7.1718929,3.354516 0 0 0 -7.171769,3.35461 7.1718929,3.354516 0 0 0 0.569551,1.30793 l -0.07075,0.0889 -0.213435,0.37325 -0.156167,0.40447 -0.09538,0.42564 -0.03205,0.43632 v 11.43231 l 0.03205,0.43632 0.09538,0.42564 0.156167,0.40448 0.213435,0.37324 0.265035,0.333 0.310575,0.28419 0.348103,0.22884 0.377224,0.16745 0.396966,0.10227 0.406934,0.0344 h 9.28892 l 0.406934,-0.0344 0.397161,-0.10227 0.37703,-0.16745 0.348298,-0.22884 0.310379,-0.28419 0.265231,-0.333 0.213239,-0.37324 0.156167,-0.40448 0.09538,-0.42564 0.03205,-0.43632 v -11.43231 l -0.03205,-0.43632 -0.09538,-0.42564 -0.156167,-0.40447 -0.213239,-0.37325 -0.144636,-0.1817 a 7.1718929,3.354516 0 0 0 0.490783,-1.21508 7.1718929,3.354516 0 0 0 -7.171965,-3.35461 z" />
    <path
       id="rect56420"
       style="font-variation-settings:normal;opacity:0.5;vector-effect:none;fill:#803300;fill-opacity:1;fill-rule:evenodd;stroke:#150053;stroke-width:0.112904;stroke-linecap:butt;stroke-linejoin:miter;stroke-miterlimit:4;stroke-dasharray:none;stroke-dashoffset:0;stroke-opacity:0;-inkscape-stroke:none;stop-color:#000000;stop-opacity:1"
       d="m 65.723892,97.036548 v 10.310712 h -6.858356 v 8.7727 H 55.66307 v 11.65345 h 20.925463 v -11.65345 h -3.068152 v -8.7727 H 66.661767 V 97.036548 Z" />
    <path
       id="path57163"
       style="font-variation-settings:normal;opacity:0.5;vector-effect:none;fill:url(#radialGradient57171);fill-opacity:1;fill-rule:evenodd;stroke:#150053;stroke-width:0.0869064;stroke-linecap:butt;stroke-linejoin:miter;stroke-miterlimit:4;stroke-dasharray:none;stroke-dashoffset:0;stroke-opacity:0;-inkscape-stroke:none;stop-color:#000000;stop-opacity:1"
       d="m 23.341889,108.91233 a 5.8654852,2.8759873 0 0 0 -5.865384,2.87605 5.8654852,2.8759873 0 0 0 0.465803,1.12136 l -0.05787,0.0762 -0.174555,0.32 -0.127721,0.34677 -0.07801,0.36492 -0.02622,0.37409 v 9.80145 l 0.02622,0.37408 0.07801,0.36493 0.127721,0.34678 0.174555,0.31999 0.216758,0.2855 0.254001,0.24365 0.284693,0.1962 0.308512,0.14357 0.324655,0.0877 0.332808,0.0295 h 7.596881 l 0.332809,-0.0295 0.324815,-0.0877 0.308351,-0.14357 0.284853,-0.1962 0.253843,-0.24365 0.216916,-0.2855 0.174397,-0.31999 0.127721,-0.34678 0.07801,-0.36493 0.02622,-0.37408 v -9.80145 l -0.02622,-0.37409 -0.07801,-0.36492 -0.127721,-0.34677 -0.174397,-0.32 -0.118289,-0.15578 a 5.8654852,2.8759873 0 0 0 0.401384,-1.04176 5.8654852,2.8759873 0 0 0 -5.865543,-2.87605 z" />
    <path
       id="path60072"
       style="font-variation-settings:normal;opacity:0.5;vector-effect:none;fill:#aa4400;fill-opacity:1;fill-rule:evenodd;stroke:#150053;stroke-width:0.103786;stroke-linecap:butt;stroke-linejoin:miter;stroke-miterlimit:4;stroke-dasharray:none;stroke-dashoffset:0;stroke-opacity:0;-inkscape-stroke:none;stop-color:#000000;stop-opacity:1"
       d="m 30.29737,107.478 a 7.1949685,3.3437574 13.035966 0 0 -7.659215,1.71522 7.1949685,3.3437574 13.035966 0 0 0.308711,1.40501 l -0.08617,0.0715 -0.279963,0.31871 -0.229842,0.36181 -0.174363,0.39582 -0.1144,0.42013 -2.175235,11.19186 -0.05164,0.43416 0.01239,0.43755 0.07592,0.43013 0.137928,0.41208 0.1961,0.38398 0.249971,0.34614 0.297239,0.30018 0.33743,0.24645 0.369158,0.18696 0.391831,0.12268 9.093556,2.03195 0.404918,0.0554 0.408267,-0.0132 0.400961,-0.0814 0.384515,-0.14785 0.357924,-0.21031 0.323013,-0.26798 0.279772,-0.31875 0.229842,-0.3618 0.174362,-0.39582 0.114401,-0.42014 2.175234,-11.19186 0.05164,-0.43415 -0.01238,-0.43756 -0.07592,-0.43013 -0.137736,-0.41204 -0.107022,-0.20951 a 7.1949685,3.3437574 13.035966 0 0 0.711658,-1.08218 7.1949685,3.3437574 13.035966 0 0 -6.382841,-4.85291 z" />
    <path
       id="path60074"
       style="font-variation-settings:normal;opacity:0.5;vector-effect:none;fill:url(#radialGradient60076);fill-opacity:1;fill-rule:evenodd;stroke:#150053;stroke-width:0.0869064;stroke-linecap:butt;stroke-linejoin:miter;stroke-miterlimit:4;stroke-dasharray:none;stroke-dashoffset:0;stroke-opacity:0;-inkscape-stroke:none;stop-color:#000000;stop-opacity:1"
       d="m 30.041499,108.86672 a 5.884439,2.8667236 13.093051 0 0 -6.289252,1.53251 5.884439,2.8667236 13.093051 0 0 0.242644,1.19967 l -0.07114,0.0619 -0.231771,0.27508 -0.191015,0.31154 -0.1458,0.34018 -0.09684,0.36048 -1.864932,9.59532 -0.04551,0.37195 0.0069,0.37431 0.05905,0.36742 0.109998,0.35145 0.157875,0.32692 0.202301,0.29408 0.241374,0.25435 0.274707,0.20803 0.301145,0.15685 0.320199,0.10167 7.437103,1.66182 0.331418,0.0439 0.334667,-0.0148 0.329181,-0.0731 0.316194,-0.12977 0.294861,-0.18298 0.266678,-0.23205 0.231616,-0.27512 0.191015,-0.31155 0.1458,-0.34018 0.09684,-0.36048 1.864932,-9.59531 0.04551,-0.37195 -0.0069,-0.37431 -0.05905,-0.36742 -0.109844,-0.35141 -0.08616,-0.17839 a 5.884439,2.8667236 13.093051 0 0 0.591158,-0.93204 5.884439,2.8667236 13.093051 0 0 -5.194949,-4.09866 z" />
    <rect
       style="font-variation-settings:normal;opacity:0.95;vector-effect:none;fill:#222b00;fill-opacity:0;fill-rule:evenodd;stroke:#150053;stroke-width:0.136059;stroke-linecap:butt;stroke-linejoin:miter;stroke-miterlimit:4;stroke-dasharray:none;stroke-dashoffset:0;stroke-opacity:0;-inkscape-stroke:none;stop-color:#000000;stop-opacity:1"
       id="rect60078"
       width="69.542923"
       height="62.310886"
       x="10.78636"
       y="70.331932" />
  </g>
</svg>
